<?xml version="1.0" encoding="UTF-8"?>
<!DOCTYPE svg PUBLIC "-//W3C//DTD SVG 1.1//EN" "http://www.w3.org/Graphics/SVG/1.1/DTD/svg11.dtd">
<svg xmlns="http://www.w3.org/2000/svg" version="1.1" width="512px" height="512px" style="shape-rendering:geometricPrecision; text-rendering:geometricPrecision; image-rendering:optimizeQuality; fill-rule:evenodd; clip-rule:evenodd" xmlns:xlink="http://www.w3.org/1999/xlink">
<g><path style="opacity:0.985" fill="#141e21" d="M 232.5,-0.5 C 247.833,-0.5 263.167,-0.5 278.5,-0.5C 362.758,9.30698 427.925,49.6403 474,120.5C 495.03,155.422 507.53,193.088 511.5,233.5C 511.5,248.167 511.5,262.833 511.5,277.5C 498.959,377.766 446.959,449.266 355.5,492C 330.316,502.296 304.316,508.796 277.5,511.5C 262.833,511.5 248.167,511.5 233.5,511.5C 133.193,499.016 61.693,447.016 19,355.5C 8.86452,330.623 2.36452,304.957 -0.5,278.5C -0.5,263.167 -0.5,247.833 -0.5,232.5C 10.7579,142.111 55.7579,74.2777 134.5,29C 165.483,13.1686 198.15,3.33531 232.5,-0.5 Z"/></g>
<g><path style="opacity:1" fill="#fbe893" d="M 469.5,160.5 C 448.882,124.549 420.549,96.2156 384.5,75.5C 383.893,75.6236 383.56,75.9569 383.5,76.5C 377.99,60.2427 366.657,52.7427 349.5,54C 347.253,55.2775 345.253,56.7775 343.5,58.5C 343.53,57.5028 343.03,56.8361 342,56.5C 337.103,54.904 332.27,53.5707 327.5,52.5C 329.144,52.7135 330.644,52.3802 332,51.5C 333.167,44.6667 330.333,41.8333 323.5,43C 322.351,45.4592 322.351,47.9592 323.5,50.5C 245.506,31.4977 173.173,43.9977 106.5,88C 78.5471,107.773 56.5471,132.606 40.5,162.5C 70.197,95.9746 119.864,51.8079 189.5,30C 257.892,11.8178 322.225,21.1511 382.5,58C 421.479,83.8036 450.479,117.97 469.5,160.5 Z"/></g>
<g><path style="opacity:1" fill="#fed263" d="M 323.5,50.5 C 324.605,51.6005 325.938,52.2671 327.5,52.5C 332.27,53.5707 337.103,54.904 342,56.5C 343.03,56.8361 343.53,57.5028 343.5,58.5C 339.695,65.4611 339.861,72.4611 344,79.5C 349.364,88.8759 357.364,94.2092 368,95.5C 379.728,94.7751 384.894,88.4418 383.5,76.5C 383.56,75.9569 383.893,75.6236 384.5,75.5C 420.549,96.2156 448.882,124.549 469.5,160.5C 481.32,185.395 488.154,211.728 490,239.5C 490.824,248.343 490.657,257.01 489.5,265.5C 475.335,341.385 431.669,395.219 358.5,427C 280.475,457.657 204.141,453.99 129.5,416C 69.7513,381.807 33.7513,332.64 21.5,268.5C 18.7641,231.585 25.0974,196.252 40.5,162.5C 56.5471,132.606 78.5471,107.773 106.5,88C 173.173,43.9977 245.506,31.4977 323.5,50.5 Z"/></g>
<g><path style="opacity:1" fill="#f6f9f8" d="M 327.5,52.5 C 325.938,52.2671 324.605,51.6005 323.5,50.5C 322.351,47.9592 322.351,45.4592 323.5,43C 330.333,41.8333 333.167,44.6667 332,51.5C 330.644,52.3802 329.144,52.7135 327.5,52.5 Z"/></g>
<g><path style="opacity:1" fill="#f6f9fb" d="M 383.5,76.5 C 384.894,88.4418 379.728,94.7751 368,95.5C 357.364,94.2092 349.364,88.8759 344,79.5C 339.861,72.4611 339.695,65.4611 343.5,58.5C 345.253,56.7775 347.253,55.2775 349.5,54C 366.657,52.7427 377.99,60.2427 383.5,76.5 Z"/></g>
<g><path style="opacity:1" fill="#f6f9f9" d="M 386.5,85.5 C 396.448,84.4562 402.448,88.7895 404.5,98.5C 403.927,104.624 400.593,107.124 394.5,106C 384.563,101.662 381.897,94.8291 386.5,85.5 Z"/></g>
<g><path style="opacity:1" fill="#161f21" d="M 150.5,159.5 C 179.448,158.274 198.948,171.274 209,198.5C 211.866,206.592 213.033,214.925 212.5,223.5C 205.5,223.5 198.5,223.5 191.5,223.5C 191.751,205.66 184.418,192.16 169.5,183C 150.561,179.056 137.728,186.222 131,204.5C 128.755,210.634 127.589,216.968 127.5,223.5C 120.5,223.5 113.5,223.5 106.5,223.5C 105.889,200.56 114.555,182.06 132.5,168C 138.198,164.316 144.198,161.482 150.5,159.5 Z"/></g>
<g><path style="opacity:1" fill="#161f21" d="M 342.5,159.5 C 371.448,158.274 390.948,171.274 401,198.5C 403.866,206.592 405.033,214.925 404.5,223.5C 397.5,223.5 390.5,223.5 383.5,223.5C 383.751,205.66 376.418,192.16 361.5,183C 342.561,179.056 329.728,186.222 323,204.5C 320.755,210.634 319.589,216.968 319.5,223.5C 312.5,223.5 305.5,223.5 298.5,223.5C 297.889,200.56 306.555,182.06 324.5,168C 330.198,164.316 336.198,161.482 342.5,159.5 Z"/></g>
<g><path style="opacity:1" fill="#fdb739" d="M 489.5,265.5 C 483.793,349.451 445.46,413.617 374.5,458C 295.149,501.29 215.816,501.29 136.5,458C 66.4196,414.378 28.0863,351.211 21.5,268.5C 33.7513,332.64 69.7513,381.807 129.5,416C 204.141,453.99 280.475,457.657 358.5,427C 431.669,395.219 475.335,341.385 489.5,265.5 Z"/></g>
<g><path style="opacity:1" fill="#161f21" d="M 116.5,298.5 C 123.833,298.5 131.167,298.5 138.5,298.5C 139.606,326.213 150.94,348.713 172.5,366C 211.145,394.191 253.478,401.191 299.5,387C 326.18,378.315 347.013,362.148 362,338.5C 368.875,326.043 372.375,312.709 372.5,298.5C 379.833,298.5 387.167,298.5 394.5,298.5C 391.725,339.899 372.725,371.399 337.5,393C 292.721,418.402 246.054,422.402 197.5,405C 164.4,392.54 140.233,370.373 125,338.5C 119.929,325.643 117.095,312.31 116.5,298.5 Z"/></g>
</svg>
