<?xml version="1.0" encoding="UTF-8"?>
<!DOCTYPE svg PUBLIC "-//W3C//DTD SVG 1.1//EN" "http://www.w3.org/Graphics/SVG/1.1/DTD/svg11.dtd">
<svg xmlns="http://www.w3.org/2000/svg" version="1.1" width="512px" height="512px" style="shape-rendering:geometricPrecision; text-rendering:geometricPrecision; image-rendering:optimizeQuality; fill-rule:evenodd; clip-rule:evenodd" xmlns:xlink="http://www.w3.org/1999/xlink">
<g><path style="opacity:1" fill="#97ca68" d="M 71.5,9.5 C 194.167,9.5 316.833,9.5 439.5,9.5C 439.5,173.5 439.5,337.5 439.5,501.5C 316.833,501.5 194.167,501.5 71.5,501.5C 71.5,337.5 71.5,173.5 71.5,9.5 Z"/></g>
<g><path style="opacity:1" fill="#eceef0" d="M 86.5,24.5 C 199.167,24.5 311.833,24.5 424.5,24.5C 424.5,178.5 424.5,332.5 424.5,486.5C 311.833,486.5 199.167,486.5 86.5,486.5C 86.5,332.5 86.5,178.5 86.5,24.5 Z"/></g>
<g><path style="opacity:1" fill="#9acb6d" d="M 96.5,34.5 C 99.5184,34.3354 102.518,34.502 105.5,35C 104,39.1667 101.167,42 97,43.5C 96.502,40.5184 96.3354,37.5184 96.5,34.5 Z"/></g>
<g><path style="opacity:1" fill="#98ca69" d="M 115.5,34.5 C 132.5,34.5 149.5,34.5 166.5,34.5C 166.5,61.1667 166.5,87.8333 166.5,114.5C 179.171,114.333 191.838,114.5 204.5,115C 222.917,147.472 249.251,156.139 283.5,141C 293.653,134.514 301.32,125.848 306.5,115C 319.162,114.5 331.829,114.333 344.5,114.5C 344.5,87.8333 344.5,61.1667 344.5,34.5C 361.5,34.5 378.5,34.5 395.5,34.5C 397.514,45.1808 403.847,51.5141 414.5,53.5C 414.5,119.167 414.5,184.833 414.5,250.5C 376.494,250.833 338.494,250.5 300.5,249.5C 293.282,221.712 275.282,208.879 246.5,211C 226.736,216.596 214.736,229.43 210.5,249.5C 172.506,250.5 134.506,250.833 96.5,250.5C 96.5,184.833 96.5,119.167 96.5,53.5C 107.167,51.5 113.5,45.1667 115.5,34.5 Z"/></g>
<g><path style="opacity:1" fill="#97ca68" d="M 176.5,34.5 C 187.833,34.5 199.167,34.5 210.5,34.5C 210.5,45.8333 210.5,57.1667 210.5,68.5C 240.5,68.5 270.5,68.5 300.5,68.5C 300.5,57.1667 300.5,45.8333 300.5,34.5C 311.833,34.5 323.167,34.5 334.5,34.5C 334.5,57.8333 334.5,81.1667 334.5,104.5C 281.833,104.5 229.167,104.5 176.5,104.5C 176.5,81.1667 176.5,57.8333 176.5,34.5 Z"/></g>
<g><path style="opacity:1" fill="#97ca68" d="M 220.5,34.5 C 243.833,34.5 267.167,34.5 290.5,34.5C 290.5,42.5 290.5,50.5 290.5,58.5C 267.167,58.5 243.833,58.5 220.5,58.5C 220.5,50.5 220.5,42.5 220.5,34.5 Z"/></g>
<g><path style="opacity:1" fill="#9bcb6e" d="M 405.5,35.5 C 408.287,34.5233 411.287,34.19 414.5,34.5C 414.817,37.5719 414.484,40.5719 413.5,43.5C 409.784,41.7837 407.117,39.1171 405.5,35.5 Z"/></g>
<g><path style="opacity:1" fill="#98ca6a" d="M 216.5,114.5 C 242.509,114.167 268.509,114.5 294.5,115.5C 282.454,134.184 265.454,141.351 243.5,137C 230.971,133.63 221.971,126.13 216.5,114.5 Z"/></g>
<g><path style="opacity:1" fill="#98ca6a" d="M 248.5,220.5 C 267.799,218.894 281.299,226.894 289,244.5C 289.495,246.473 289.662,248.473 289.5,250.5C 266.833,250.5 244.167,250.5 221.5,250.5C 224.173,234.826 233.173,224.826 248.5,220.5 Z"/></g>
<g><path style="opacity:1" fill="#98ca69" d="M 96.5,260.5 C 134.833,260.5 173.167,260.5 211.5,260.5C 215.51,284.84 229.843,298.174 254.5,300.5C 280.246,299.08 295.246,285.747 299.5,260.5C 337.833,260.5 376.167,260.5 414.5,260.5C 414.5,326.167 414.5,391.833 414.5,457.5C 403.833,459.5 397.5,465.833 395.5,476.5C 378.5,476.5 361.5,476.5 344.5,476.5C 344.5,449.833 344.5,423.167 344.5,396.5C 331.829,396.667 319.162,396.5 306.5,396C 290.902,367.129 267.236,357.129 235.5,366C 221.557,372.276 211.224,382.276 204.5,396C 191.838,396.5 179.171,396.667 166.5,396.5C 166.5,423.167 166.5,449.833 166.5,476.5C 149.5,476.5 132.5,476.5 115.5,476.5C 113.514,465.847 107.181,459.514 96.5,457.5C 96.5,391.833 96.5,326.167 96.5,260.5 Z"/></g>
<g><path style="opacity:1" fill="#98ca6a" d="M 221.5,260.5 C 244.167,260.5 266.833,260.5 289.5,260.5C 286.028,279.301 274.694,289.301 255.5,290.5C 236.315,289.311 224.981,279.311 221.5,260.5 Z"/></g>
<g><path style="opacity:1" fill="#98ca6a" d="M 248.5,372.5 C 268.909,371.121 284.576,378.954 295.5,396C 268.833,396.667 242.167,396.667 215.5,396C 223.376,383.601 234.376,375.768 248.5,372.5 Z"/></g>
<g><path style="opacity:1" fill="#97ca68" d="M 176.5,406.5 C 229.167,406.5 281.833,406.5 334.5,406.5C 334.5,429.833 334.5,453.167 334.5,476.5C 323.167,476.5 311.833,476.5 300.5,476.5C 300.5,465.167 300.5,453.833 300.5,442.5C 270.5,442.5 240.5,442.5 210.5,442.5C 210.5,453.833 210.5,465.167 210.5,476.5C 199.167,476.5 187.833,476.5 176.5,476.5C 176.5,453.167 176.5,429.833 176.5,406.5 Z"/></g>
<g><path style="opacity:1" fill="#97ca68" d="M 220.5,452.5 C 243.833,452.5 267.167,452.5 290.5,452.5C 290.5,460.5 290.5,468.5 290.5,476.5C 267.167,476.5 243.833,476.5 220.5,476.5C 220.5,468.5 220.5,460.5 220.5,452.5 Z"/></g>
<g><path style="opacity:1" fill="#9bcb6e" d="M 96.5,467.5 C 100.746,468.745 103.746,471.412 105.5,475.5C 102.572,476.484 99.5719,476.817 96.5,476.5C 96.5,473.5 96.5,470.5 96.5,467.5 Z"/></g>
<g><path style="opacity:1" fill="#9bcb6e" d="M 412.5,467.5 C 414.388,469.988 415.055,472.988 414.5,476.5C 411.428,476.817 408.428,476.484 405.5,475.5C 407.169,472.17 409.502,469.503 412.5,467.5 Z"/></g>
</svg>
