<?xml version="1.0" encoding="UTF-8"?>
<!DOCTYPE svg PUBLIC "-//W3C//DTD SVG 1.1//EN" "http://www.w3.org/Graphics/SVG/1.1/DTD/svg11.dtd">
<svg xmlns="http://www.w3.org/2000/svg" version="1.1" width="512px" height="512px" style="shape-rendering:geometricPrecision; text-rendering:geometricPrecision; image-rendering:optimizeQuality; fill-rule:evenodd; clip-rule:evenodd" xmlns:xlink="http://www.w3.org/1999/xlink">
<g><path style="opacity:0.986" fill="#141e21" d="M 233.5,-0.5 C 248.5,-0.5 263.5,-0.5 278.5,-0.5C 334.456,5.39964 383.623,26.733 426,63.5C 431.678,53.4864 438.511,44.3198 446.5,36C 452.263,31.3904 458.596,30.3904 465.5,33C 476.511,41.8501 485.011,52.6835 491,65.5C 499.734,82.5534 506.568,100.22 511.5,118.5C 511.5,124.833 511.5,131.167 511.5,137.5C 509.959,143.275 507.793,148.942 505,154.5C 502.327,158.664 499.493,162.664 496.5,166.5C 503.819,188.114 508.819,210.114 511.5,232.5C 511.5,247.833 511.5,263.167 511.5,278.5C 501.283,363.465 460.283,428.965 388.5,475C 353.127,495.737 315.127,507.903 274.5,511.5C 261.833,511.5 249.167,511.5 236.5,511.5C 148.84,502.441 81.6738,460.774 35,386.5C 14.9995,352.003 3.16621,315.003 -0.5,275.5C -0.5,262.167 -0.5,248.833 -0.5,235.5C 9.80048,142.749 55.4672,73.5818 136.5,28C 167.191,12.4874 199.524,2.98743 233.5,-0.5 Z"/></g>
<g><path style="opacity:1" fill="#fed263" d="M 412.5,95.5 C 379.492,56.8175 337.492,33.9842 286.5,27C 230.489,19.5045 179.156,31.5045 132.5,63C 82.0244,100.082 61.8578,149.582 72,211.5C 80.2693,242.875 96.7693,269.042 121.5,290C 145.756,309.128 172.756,322.962 202.5,331.5C 191.09,344.325 185.924,359.325 187,376.5C 188.122,378.624 189.622,380.457 191.5,382C 212.58,383.156 233.747,383.656 255,383.5C 276.562,383.651 298.062,383.151 319.5,382C 321.378,380.457 322.878,378.624 324,376.5C 325.083,359.336 319.917,344.336 308.5,331.5C 347.935,320.89 381.435,300.556 409,270.5C 428.693,246.763 439.86,219.43 442.5,188.5C 453.164,192.449 463.83,192.282 474.5,188C 476.544,187.502 477.878,186.335 478.5,184.5C 487.711,210.763 491.378,237.763 489.5,265.5C 475.341,341.367 431.674,395.201 358.5,427C 280.475,457.657 204.141,453.99 129.5,416C 69.7513,381.807 33.7513,332.64 21.5,268.5C 19.1582,177.347 55.8249,106.514 131.5,56C 201.16,15.0956 273.493,9.76227 348.5,40C 373.623,50.9699 396.123,65.8032 416,84.5C 415.455,88.2834 414.288,91.95 412.5,95.5 Z"/></g>
<g><path style="opacity:1" fill="#f7cf69" d="M 412.5,95.5 C 412.167,96.1667 411.833,96.8333 411.5,97.5C 366.334,47.3614 309.668,24.1947 241.5,28C 184.026,31.487 136.86,54.987 100,98.5C 62.7828,152.057 62.1161,206.057 98,260.5C 125.016,294.773 159.849,317.107 202.5,327.5C 203.713,327.747 204.38,328.414 204.5,329.5C 204.167,330.5 203.5,331.167 202.5,331.5C 172.756,322.962 145.756,309.128 121.5,290C 96.7693,269.042 80.2693,242.875 72,211.5C 61.8578,149.582 82.0244,100.082 132.5,63C 179.156,31.5045 230.489,19.5045 286.5,27C 337.492,33.9842 379.492,56.8175 412.5,95.5 Z"/></g>
<g><path style="opacity:1" fill="#f1cc6d" d="M 411.5,97.5 C 410.696,100.579 409.696,103.579 408.5,106.5C 401.335,97.0782 393.335,88.2448 384.5,80C 379.792,75.988 374.792,72.488 369.5,69.5C 362.373,56.2266 351.373,51.2266 336.5,54.5C 331.391,55.0228 326.724,53.6895 322.5,50.5C 322.391,46.394 320.391,43.7274 316.5,42.5C 258.033,25.9332 202.366,32.7666 149.5,63C 121.117,81.0518 100.284,105.552 87,136.5C 70.7033,187.688 80.7033,233.021 117,272.5C 143.325,298.313 174.492,315.313 210.5,323.5C 208.833,325.833 206.833,327.833 204.5,329.5C 204.38,328.414 203.713,327.747 202.5,327.5C 159.849,317.107 125.016,294.773 98,260.5C 62.1161,206.057 62.7828,152.057 100,98.5C 136.86,54.987 184.026,31.487 241.5,28C 309.668,24.1947 366.334,47.3614 411.5,97.5 Z"/></g>
<g><path style="opacity:1" fill="#e9c973" d="M 316.5,42.5 C 312.5,41.8333 310.833,43.5 311.5,47.5C 251.242,31.4878 195.242,40.6544 143.5,75C 101.134,106.236 82.634,148.069 88,200.5C 96.5693,241.393 118.736,272.56 154.5,294C 173.779,305.538 194.446,313.538 216.5,318C 215.167,318.333 213.833,318.667 212.5,319C 213.416,319.278 214.082,319.778 214.5,320.5C 213.564,321.974 212.23,322.974 210.5,323.5C 174.492,315.313 143.325,298.313 117,272.5C 80.7033,233.021 70.7033,187.688 87,136.5C 100.284,105.552 121.117,81.0518 149.5,63C 202.366,32.7666 258.033,25.9332 316.5,42.5 Z"/></g>
<g><path style="opacity:1" fill="#e0c479" d="M 311.5,47.5 C 314.131,52.655 317.797,53.655 322.5,50.5C 326.724,53.6895 331.391,55.0228 336.5,54.5C 334.471,56.8585 332.471,59.1918 330.5,61.5C 275.204,39.6772 220.871,41.8439 167.5,68C 137.304,84.1953 115.47,108.029 102,139.5C 86.2055,187.978 96.0388,230.311 131.5,266.5C 136.094,276.26 143.427,283.094 153.5,287C 157.152,287.499 160.818,287.665 164.5,287.5C 185.834,300.278 208.834,308.278 233.5,311.5C 226.742,313.714 220.408,316.714 214.5,320.5C 214.082,319.778 213.416,319.278 212.5,319C 213.833,318.667 215.167,318.333 216.5,318C 194.446,313.538 173.779,305.538 154.5,294C 118.736,272.56 96.5693,241.393 88,200.5C 82.634,148.069 101.134,106.236 143.5,75C 195.242,40.6544 251.242,31.4878 311.5,47.5 Z"/></g>
<g><path style="opacity:1" fill="#f5f7f5" d="M 316.5,42.5 C 320.391,43.7274 322.391,46.394 322.5,50.5C 317.797,53.655 314.131,52.655 311.5,47.5C 310.833,43.5 312.5,41.8333 316.5,42.5 Z"/></g>
<g><path style="opacity:1" fill="#d8c07f" d="M 330.5,61.5 C 330.5,62.5 330.5,63.5 330.5,64.5C 329.839,65.7175 329.172,67.0508 328.5,68.5C 280.24,48.6886 231.907,48.5219 183.5,68C 170.553,73.8869 158.553,81.2203 147.5,90C 142,96.8333 135.833,103 129,108.5C 98.2982,148.247 94.2982,190.581 117,235.5C 119.263,239.12 121.597,242.787 124,246.5C 124.816,247.823 125.983,248.489 127.5,248.5C 127.941,254.708 129.275,260.708 131.5,266.5C 96.0388,230.311 86.2055,187.978 102,139.5C 115.47,108.029 137.304,84.1953 167.5,68C 220.871,41.8439 275.204,39.6772 330.5,61.5 Z"/></g>
<g><path style="opacity:1" fill="#f5f9fb" d="M 369.5,69.5 C 371.353,72.2084 372.353,75.2084 372.5,78.5C 372.684,91.972 366.017,97.6387 352.5,95.5C 346.543,92.8457 341.209,89.179 336.5,84.5C 333.94,80.7133 331.94,76.7133 330.5,72.5C 330.5,69.8333 330.5,67.1667 330.5,64.5C 330.5,63.5 330.5,62.5 330.5,61.5C 332.471,59.1918 334.471,56.8585 336.5,54.5C 351.373,51.2266 362.373,56.2266 369.5,69.5 Z"/></g>
<g><path style="opacity:1" fill="#d1be84" d="M 330.5,64.5 C 330.5,67.1667 330.5,69.8333 330.5,72.5C 330.631,73.3764 330.298,74.0431 329.5,74.5C 293.891,58.2576 256.891,54.0909 218.5,62C 176.838,70.7204 144.672,92.8871 122,128.5C 113.117,144.699 108.617,162.032 108.5,180.5C 107.5,180.5 106.5,180.5 105.5,180.5C 105.5,187.833 105.5,195.167 105.5,202.5C 107.167,202.5 108.833,202.5 110.5,202.5C 113.489,216.469 119.156,229.136 127.5,240.5C 127.5,243.167 127.5,245.833 127.5,248.5C 125.983,248.489 124.816,247.823 124,246.5C 121.597,242.787 119.263,239.12 117,235.5C 94.2982,190.581 98.2982,148.247 129,108.5C 135.833,103 142,96.8333 147.5,90C 158.553,81.2203 170.553,73.8869 183.5,68C 231.907,48.5219 280.24,48.6886 328.5,68.5C 329.172,67.0508 329.839,65.7175 330.5,64.5 Z"/></g>
<g><path style="opacity:1" fill="#3bc3f4" d="M 487.5,114.5 C 481.762,126.963 471.929,132.963 458,132.5C 444.865,132.526 435.032,126.86 428.5,115.5C 433.466,98.2308 440.633,81.8975 450,66.5C 452.29,62.3808 455.124,58.7142 458.5,55.5C 471.624,73.4144 481.29,93.0811 487.5,114.5 Z"/></g>
<g><path style="opacity:1" fill="#caba8a" d="M 330.5,72.5 C 331.94,76.7133 333.94,80.7133 336.5,84.5C 282.417,56.3377 228.417,56.5044 174.5,85C 142.53,103.64 123.03,131.14 116,167.5C 115.501,171.821 115.334,176.154 115.5,180.5C 113.167,180.5 110.833,180.5 108.5,180.5C 108.617,162.032 113.117,144.699 122,128.5C 144.672,92.8871 176.838,70.7204 218.5,62C 256.891,54.0909 293.891,58.2576 329.5,74.5C 330.298,74.0431 330.631,73.3764 330.5,72.5 Z"/></g>
<g><path style="opacity:1" fill="#c5b88d" d="M 336.5,84.5 C 341.209,89.179 346.543,92.8457 352.5,95.5C 372.152,111.67 385.652,132.003 393,156.5C 394.927,164.387 395.761,172.387 395.5,180.5C 394.5,180.5 393.5,180.5 392.5,180.5C 386.315,130.468 359.648,96.3011 312.5,78C 256.417,58.534 204.75,66.534 157.5,102C 134.013,122.474 121.347,148.307 119.5,179.5C 118.292,180.234 116.959,180.567 115.5,180.5C 115.334,176.154 115.501,171.821 116,167.5C 123.03,131.14 142.53,103.64 174.5,85C 228.417,56.5044 282.417,56.3377 336.5,84.5 Z"/></g>
<g><path style="opacity:1" fill="#e9c974" d="M 369.5,69.5 C 374.792,72.488 379.792,75.988 384.5,80C 393.335,88.2448 401.335,97.0782 408.5,106.5C 408.167,108.5 407.833,110.5 407.5,112.5C 406.504,112.586 405.671,112.252 405,111.5C 404.667,112.167 404.333,112.833 404,113.5C 401.35,109.025 398.183,105.025 394.5,101.5C 394.367,93.2236 390.367,87.8903 382.5,85.5C 378.64,83.982 375.307,81.6487 372.5,78.5C 372.353,75.2084 371.353,72.2084 369.5,69.5 Z"/></g>
<g><path style="opacity:1" fill="#beb592" d="M 392.5,180.5 C 389.833,180.167 387.167,179.833 384.5,179.5C 380.126,140.314 360.793,111.148 326.5,92C 279.167,68.6667 231.833,68.6667 184.5,92C 150.478,110.869 131.478,139.702 127.5,178.5C 125.052,179.473 122.385,179.806 119.5,179.5C 121.347,148.307 134.013,122.474 157.5,102C 204.75,66.534 256.417,58.534 312.5,78C 359.648,96.3011 386.315,130.468 392.5,180.5 Z"/></g>
<g><path style="opacity:1" fill="#b8b297" d="M 384.5,179.5 C 382.565,178.85 380.565,178.517 378.5,178.5C 374.933,142.528 357.599,115.362 326.5,97C 279.167,72.3333 231.833,72.3333 184.5,97C 153.401,115.362 136.067,142.528 132.5,178.5C 130.833,178.5 129.167,178.5 127.5,178.5C 131.478,139.702 150.478,110.869 184.5,92C 231.833,68.6667 279.167,68.6667 326.5,92C 360.793,111.148 380.126,140.314 384.5,179.5 Z"/></g>
<g><path style="opacity:1" fill="#b2af9b" d="M 378.5,178.5 C 375.933,178.279 373.599,177.612 371.5,176.5C 368.739,147.808 355.739,124.974 332.5,108C 297.411,84.8421 259.411,78.5088 218.5,89C 181.959,98.8794 156.792,121.379 143,156.5C 141.076,163.042 139.91,169.709 139.5,176.5C 137.228,177.319 134.894,177.985 132.5,178.5C 136.067,142.528 153.401,115.362 184.5,97C 231.833,72.3333 279.167,72.3333 326.5,97C 357.599,115.362 374.933,142.528 378.5,178.5 Z"/></g>
<g><path style="opacity:1" fill="#abaca0" d="M 371.5,176.5 C 369.435,176.483 367.435,176.15 365.5,175.5C 361.635,144.135 345.968,120.635 318.5,105C 281.423,85.5577 243.423,83.5577 204.5,99C 176.667,110.831 157.834,130.997 148,159.5C 146.454,164.73 145.62,170.063 145.5,175.5C 143.5,175.833 141.5,176.167 139.5,176.5C 139.91,169.709 141.076,163.042 143,156.5C 156.792,121.379 181.959,98.8794 218.5,89C 259.411,78.5088 297.411,84.8421 332.5,108C 355.739,124.974 368.739,147.808 371.5,176.5 Z"/></g>
<g><path style="opacity:1" fill="#f5f8f8" d="M 382.5,85.5 C 390.367,87.8903 394.367,93.2236 394.5,101.5C 389.378,107.841 383.711,108.175 377.5,102.5C 374.273,98.7233 372.773,94.39 373,89.5C 375.195,86.0375 378.361,84.7042 382.5,85.5 Z"/></g>
<g><path style="opacity:1" fill="#a5a9a4" d="M 365.5,175.5 C 363.013,174.677 360.679,173.677 358.5,172.5C 352.666,141.825 335.666,119.659 307.5,106C 264.737,87.6365 224.07,91.3031 185.5,117C 167.183,131.133 156.183,149.633 152.5,172.5C 150.321,173.677 147.987,174.677 145.5,175.5C 145.62,170.063 146.454,164.73 148,159.5C 157.834,130.997 176.667,110.831 204.5,99C 243.423,83.5577 281.423,85.5577 318.5,105C 345.968,120.635 361.635,144.135 365.5,175.5 Z"/></g>
<g><path style="opacity:1" fill="#cfbd86" d="M 372.5,78.5 C 375.307,81.6487 378.64,83.982 382.5,85.5C 378.361,84.7042 375.195,86.0375 373,89.5C 372.773,94.39 374.273,98.7233 377.5,102.5C 376.761,102.369 376.094,102.536 375.5,103C 391.137,120.108 401.637,139.941 407,162.5C 409.521,178.519 408.688,194.353 404.5,210C 400.419,219.664 395.919,229.164 391,238.5C 388.723,242.08 386.223,245.414 383.5,248.5C 383.575,242.471 383.241,236.471 382.5,230.5C 387.727,221.827 391.393,212.494 393.5,202.5C 397.5,202.5 401.5,202.5 405.5,202.5C 405.825,194.981 405.492,187.648 404.5,180.5C 401.5,180.5 398.5,180.5 395.5,180.5C 395.761,172.387 394.927,164.387 393,156.5C 385.652,132.003 372.152,111.67 352.5,95.5C 366.017,97.6387 372.684,91.972 372.5,78.5 Z"/></g>
<g><path style="opacity:1" fill="#9fa6a9" d="M 358.5,172.5 C 355.279,172.104 352.612,170.771 350.5,168.5C 346.036,147.082 334.703,130.248 316.5,118C 282.987,98.1579 247.987,95.1579 211.5,109C 189.785,118.049 173.952,133.215 164,154.5C 162.107,159.007 160.941,163.673 160.5,168.5C 158.388,170.771 155.721,172.104 152.5,172.5C 156.183,149.633 167.183,131.133 185.5,117C 224.07,91.3031 264.737,87.6365 307.5,106C 335.666,119.659 352.666,141.825 358.5,172.5 Z"/></g>
<g><path style="opacity:1" fill="#edf7fc" d="M 473.5,95.5 C 480.095,96.2496 482.429,99.7496 480.5,106C 472.726,105.931 470.392,102.431 473.5,95.5 Z"/></g>
<g><path style="opacity:1" fill="#99a4ad" d="M 350.5,168.5 C 345.88,166.536 342.213,163.536 339.5,159.5C 326.322,130.857 303.989,114.023 272.5,109C 236.624,103.623 206.458,114.123 182,140.5C 177.459,146.249 173.959,152.582 171.5,159.5C 168.787,163.536 165.12,166.536 160.5,168.5C 160.941,163.673 162.107,159.007 164,154.5C 173.952,133.215 189.785,118.049 211.5,109C 247.987,95.1579 282.987,98.1579 316.5,118C 334.703,130.248 346.036,147.082 350.5,168.5 Z"/></g>
<g><path style="opacity:1" fill="#d7c07e" d="M 394.5,101.5 C 398.183,105.025 401.35,109.025 404,113.5C 404.333,112.833 404.667,112.167 405,111.5C 405.671,112.252 406.504,112.586 407.5,112.5C 404.189,125.42 405.022,138.086 410,150.5C 412.19,154.222 414.356,157.889 416.5,161.5C 420.654,202.374 408.321,237.374 379.5,266.5C 381.464,260.645 382.797,254.645 383.5,248.5C 386.223,245.414 388.723,242.08 391,238.5C 395.919,229.164 400.419,219.664 404.5,210C 408.688,194.353 409.521,178.519 407,162.5C 401.637,139.941 391.137,120.108 375.5,103C 376.094,102.536 376.761,102.369 377.5,102.5C 383.711,108.175 389.378,107.841 394.5,101.5 Z"/></g>
<g><path style="opacity:1" fill="#f2f9fc" d="M 462.5,106.5 C 473.515,106.35 479.015,111.684 479,122.5C 476.928,127.143 473.428,128.643 468.5,127C 458.247,122.106 456.247,115.273 462.5,106.5 Z"/></g>
<g><path style="opacity:1" fill="#92a1b3" d="M 339.5,159.5 C 337.167,159.5 334.833,159.5 332.5,159.5C 322.871,137.71 306.537,123.544 283.5,117C 256.094,109.45 230.094,112.783 205.5,127C 192.991,135.001 183.991,145.835 178.5,159.5C 176.167,159.5 173.833,159.5 171.5,159.5C 173.959,152.582 177.459,146.249 182,140.5C 206.458,114.123 236.624,103.623 272.5,109C 303.989,114.023 326.322,130.857 339.5,159.5 Z"/></g>
<g><path style="opacity:1" fill="#8c9eb7" d="M 332.5,159.5 C 330.167,159.5 327.833,159.5 325.5,159.5C 320.24,146.735 311.573,136.902 299.5,130C 270.167,114.667 240.833,114.667 211.5,130C 199.427,136.902 190.76,146.735 185.5,159.5C 183.167,159.5 180.833,159.5 178.5,159.5C 183.991,145.835 192.991,135.001 205.5,127C 230.094,112.783 256.094,109.45 283.5,117C 306.537,123.544 322.871,137.71 332.5,159.5 Z"/></g>
<g><path style="opacity:1" fill="#00a1de" d="M 487.5,114.5 C 492.944,130.024 489.278,143.19 476.5,154C 453.475,165.065 436.975,158.898 427,135.5C 426.333,130.167 426.333,124.833 427,119.5C 427.21,117.942 427.71,116.609 428.5,115.5C 435.032,126.86 444.865,132.526 458,132.5C 471.929,132.963 481.762,126.963 487.5,114.5 Z"/></g>
<g><path style="opacity:1" fill="#869cbc" d="M 325.5,159.5 C 323.265,159.205 321.265,159.539 319.5,160.5C 305.272,136.349 283.939,124.349 255.5,124.5C 227.061,124.349 205.728,136.349 191.5,160.5C 189.735,159.539 187.735,159.205 185.5,159.5C 190.76,146.735 199.427,136.902 211.5,130C 240.833,114.667 270.167,114.667 299.5,130C 311.573,136.902 320.24,146.735 325.5,159.5 Z"/></g>
<g><path style="opacity:1" fill="#7f98c1" d="M 319.5,160.5 C 319.911,165.486 321.245,170.152 323.5,174.5C 324.726,194.548 317.393,210.715 301.5,223C 270.833,242.333 240.167,242.333 209.5,223C 193.607,210.715 186.274,194.548 187.5,174.5C 189.763,170.118 191.096,165.451 191.5,160.5C 205.728,136.349 227.061,124.349 255.5,124.5C 283.939,124.349 305.272,136.349 319.5,160.5 Z"/></g>
<g><path style="opacity:1" fill="#7996c5" d="M 251.5,130.5 C 274.779,129.856 293.612,138.522 308,156.5C 321.16,182.7 315.66,204.2 291.5,221C 267.5,233.667 243.5,233.667 219.5,221C 194.07,202.848 189.237,180.348 205,153.5C 217.46,139.52 232.96,131.853 251.5,130.5 Z"/></g>
<g><path style="opacity:1" fill="#7393c9" d="M 245.5,138.5 C 262.956,136.286 278.622,140.453 292.5,151C 308.567,166.759 310.734,184.259 299,203.5C 280.288,223.045 258.122,228.212 232.5,219C 205.643,206.088 198.477,186.255 211,159.5C 219.799,148.019 231.299,141.019 245.5,138.5 Z"/></g>
<g><path style="opacity:1" fill="#6d90cd" d="M 248.5,145.5 C 268.563,143.559 284.063,150.893 295,167.5C 301.208,188.92 294.041,204.086 273.5,213C 253.005,219.887 235.172,215.721 220,200.5C 208.473,181.1 211.973,164.934 230.5,152C 236.299,148.918 242.299,146.752 248.5,145.5 Z"/></g>
<g><path style="opacity:1" fill="#678dd2" d="M 251.5,152.5 C 268.511,151.413 280.677,158.413 288,173.5C 290.749,190.437 283.915,201.604 267.5,207C 253.954,210.723 241.62,208.39 230.5,200C 217.316,183.241 219.649,168.908 237.5,157C 242.127,154.956 246.794,153.456 251.5,152.5 Z"/></g>
<g><path style="opacity:1" fill="#161f22" d="M 171.5,159.5 C 173.833,159.5 176.167,159.5 178.5,159.5C 180.833,159.5 183.167,159.5 185.5,159.5C 187.735,159.205 189.735,159.539 191.5,160.5C 191.096,165.451 189.763,170.118 187.5,174.5C 185.196,177.141 182.862,179.808 180.5,182.5C 177.865,183.811 175.531,185.478 173.5,187.5C 167.432,190.205 161.432,192.872 155.5,195.5C 148.455,197.011 141.455,198.678 134.5,200.5C 131.391,200.264 128.391,200.597 125.5,201.5C 120.482,201.613 115.482,201.947 110.5,202.5C 108.833,202.5 107.167,202.5 105.5,202.5C 105.5,195.167 105.5,187.833 105.5,180.5C 106.5,180.5 107.5,180.5 108.5,180.5C 110.833,180.5 113.167,180.5 115.5,180.5C 116.959,180.567 118.292,180.234 119.5,179.5C 122.385,179.806 125.052,179.473 127.5,178.5C 129.167,178.5 130.833,178.5 132.5,178.5C 134.894,177.985 137.228,177.319 139.5,176.5C 141.5,176.167 143.5,175.833 145.5,175.5C 147.987,174.677 150.321,173.677 152.5,172.5C 155.721,172.104 158.388,170.771 160.5,168.5C 165.12,166.536 168.787,163.536 171.5,159.5 Z"/></g>
<g><path style="opacity:1" fill="#151f21" d="M 325.5,159.5 C 327.833,159.5 330.167,159.5 332.5,159.5C 334.833,159.5 337.167,159.5 339.5,159.5C 342.213,163.536 345.88,166.536 350.5,168.5C 352.612,170.771 355.279,172.104 358.5,172.5C 360.679,173.677 363.013,174.677 365.5,175.5C 367.435,176.15 369.435,176.483 371.5,176.5C 373.599,177.612 375.933,178.279 378.5,178.5C 380.565,178.517 382.565,178.85 384.5,179.5C 387.167,179.833 389.833,180.167 392.5,180.5C 393.5,180.5 394.5,180.5 395.5,180.5C 398.5,180.5 401.5,180.5 404.5,180.5C 404.5,187.5 404.5,194.5 404.5,201.5C 400.167,201.5 395.833,201.5 391.5,201.5C 386.473,201.497 381.473,201.164 376.5,200.5C 370.618,199.199 364.618,197.866 358.5,196.5C 351.452,193.815 344.452,190.815 337.5,187.5C 335.45,185.453 333.117,183.786 330.5,182.5C 328.138,179.808 325.804,177.141 323.5,174.5C 321.245,170.152 319.911,165.486 319.5,160.5C 321.265,159.539 323.265,159.205 325.5,159.5 Z"/></g>
<g><path style="opacity:1" fill="#618ad7" d="M 249.5,159.5 C 261.218,157.79 270.718,161.456 278,170.5C 283.793,182.484 280.96,191.984 269.5,199C 255.512,205.069 243.346,202.569 233,191.5C 227.533,180.534 229.7,171.367 239.5,164C 242.815,162.17 246.149,160.67 249.5,159.5 Z"/></g>
<g><path style="opacity:1" fill="#fab539" d="M 418.5,163.5 C 434.735,179.309 453.735,183.975 475.5,177.5C 477.456,179.351 478.456,181.684 478.5,184.5C 477.878,186.335 476.544,187.502 474.5,188C 463.83,192.282 453.164,192.449 442.5,188.5C 440.95,187.559 439.284,186.893 437.5,186.5C 435.795,184.808 433.795,183.475 431.5,182.5C 429.5,179.833 427.167,177.5 424.5,175.5C 421.975,171.783 419.975,167.783 418.5,163.5 Z"/></g>
<g><path style="opacity:1" fill="#e0c479" d="M 416.5,161.5 C 417.5,161.833 418.167,162.5 418.5,163.5C 419.975,167.783 421.975,171.783 424.5,175.5C 425.063,209.989 413.896,239.989 391,265.5C 365.028,292.576 333.528,309.909 296.5,317.5C 295.287,317.747 294.62,318.414 294.5,319.5C 290.047,316.607 285.38,314.273 280.5,312.5C 293.405,308.851 306.405,305.018 319.5,301C 329.119,297.524 338.119,293.024 346.5,287.5C 358.394,288.47 367.894,284.137 375,274.5C 376.328,271.688 377.828,269.022 379.5,266.5C 408.321,237.374 420.654,202.374 416.5,161.5 Z"/></g>
<g><path style="opacity:1" fill="#e9c873" d="M 424.5,175.5 C 427.167,177.5 429.5,179.833 431.5,182.5C 430.268,217.285 417.768,247.285 394,272.5C 367.675,298.313 336.508,315.313 300.5,323.5C 298.228,322.559 296.228,321.226 294.5,319.5C 294.62,318.414 295.287,317.747 296.5,317.5C 333.528,309.909 365.028,292.576 391,265.5C 413.896,239.989 425.063,209.989 424.5,175.5 Z"/></g>
<g><path style="opacity:1" fill="#879cbb" d="M 187.5,174.5 C 186.274,194.548 193.607,210.715 209.5,223C 240.167,242.333 270.833,242.333 301.5,223C 317.393,210.715 324.726,194.548 323.5,174.5C 325.804,177.141 328.138,179.808 330.5,182.5C 327.328,208.858 313.328,227.024 288.5,237C 258.202,248.005 229.869,244.338 203.5,226C 189.504,214.839 181.837,200.339 180.5,182.5C 182.862,179.808 185.196,177.141 187.5,174.5 Z"/></g>
<g><path style="opacity:1" fill="#605e4a" d="M 404.5,180.5 C 405.492,187.648 405.825,194.981 405.5,202.5C 401.5,202.5 397.5,202.5 393.5,202.5C 392.508,202.672 391.842,202.338 391.5,201.5C 395.833,201.5 400.167,201.5 404.5,201.5C 404.5,194.5 404.5,187.5 404.5,180.5 Z"/></g>
<g><path style="opacity:1" fill="#8c9eb7" d="M 180.5,182.5 C 181.837,200.339 189.504,214.839 203.5,226C 229.869,244.338 258.202,248.005 288.5,237C 313.328,227.024 327.328,208.858 330.5,182.5C 333.117,183.786 335.45,185.453 337.5,187.5C 329.747,218.753 310.08,238.253 278.5,246C 248.242,252.75 220.908,246.75 196.5,228C 184.713,216.743 177.046,203.243 173.5,187.5C 175.531,185.478 177.865,183.811 180.5,182.5 Z"/></g>
<g><path style="opacity:1" fill="#f0cc6e" d="M 431.5,182.5 C 433.795,183.475 435.795,184.808 437.5,186.5C 433.027,232.09 412.36,268.257 375.5,295C 353.695,309.986 330.029,320.82 304.5,327.5C 302.833,326.5 301.5,325.167 300.5,323.5C 336.508,315.313 367.675,298.313 394,272.5C 417.768,247.285 430.268,217.285 431.5,182.5 Z"/></g>
<g><path style="opacity:1" fill="#93a1b0" d="M 173.5,187.5 C 177.046,203.243 184.713,216.743 196.5,228C 220.908,246.75 248.242,252.75 278.5,246C 310.08,238.253 329.747,218.753 337.5,187.5C 344.452,190.815 351.452,193.815 358.5,196.5C 356.912,198.113 355.912,200.113 355.5,202.5C 343.152,201.424 333.652,206.091 327,216.5C 323.403,222.796 320.903,229.463 319.5,236.5C 282.917,261.236 244.584,264.07 204.5,245C 200.138,242.156 195.805,239.323 191.5,236.5C 189.618,225.903 184.952,216.736 177.5,209C 171.497,203.722 164.497,201.555 156.5,202.5C 156.611,201.883 156.944,201.383 157.5,201C 156.536,199.275 155.869,197.441 155.5,195.5C 161.432,192.872 167.432,190.205 173.5,187.5 Z"/></g>
<g><path style="opacity:1" fill="#f6ce69" d="M 437.5,186.5 C 439.284,186.893 440.95,187.559 442.5,188.5C 439.86,219.43 428.693,246.763 409,270.5C 381.435,300.556 347.935,320.89 308.5,331.5C 306.833,330.5 305.5,329.167 304.5,327.5C 330.029,320.82 353.695,309.986 375.5,295C 412.36,268.257 433.027,232.09 437.5,186.5 Z"/></g>
<g><path style="opacity:1" fill="#acac9c" d="M 155.5,195.5 C 155.869,197.441 156.536,199.275 157.5,201C 156.944,201.383 156.611,201.883 156.5,202.5C 148.893,203.47 142.56,206.803 137.5,212.5C 137.122,208.322 136.122,204.322 134.5,200.5C 141.455,198.678 148.455,197.011 155.5,195.5 Z"/></g>
<g><path style="opacity:1" fill="#adac9b" d="M 358.5,196.5 C 364.618,197.866 370.618,199.199 376.5,200.5C 375.308,204.302 373.975,207.969 372.5,211.5C 367.841,206.67 362.175,203.67 355.5,202.5C 355.912,200.113 356.912,198.113 358.5,196.5 Z"/></g>
<g><path style="opacity:1" fill="#b9b193" d="M 134.5,200.5 C 136.122,204.322 137.122,208.322 137.5,212.5C 135.83,215.175 134.164,217.841 132.5,220.5C 129.594,214.457 127.261,208.123 125.5,201.5C 128.391,200.597 131.391,200.264 134.5,200.5 Z"/></g>
<g><path style="opacity:1" fill="#c0b58f" d="M 376.5,200.5 C 381.473,201.164 386.473,201.497 391.5,201.5C 391.842,202.338 392.508,202.672 393.5,202.5C 391.393,212.494 387.727,221.827 382.5,230.5C 379.978,223.79 376.644,217.457 372.5,211.5C 373.975,207.969 375.308,204.302 376.5,200.5 Z"/></g>
<g><path style="opacity:1" fill="#c8b98a" d="M 125.5,201.5 C 127.261,208.123 129.594,214.457 132.5,220.5C 129.608,226.845 127.942,233.512 127.5,240.5C 119.156,229.136 113.489,216.469 110.5,202.5C 115.482,201.947 120.482,201.613 125.5,201.5 Z"/></g>
<g><path style="opacity:1" fill="#151f21" d="M 156.5,202.5 C 164.497,201.555 171.497,203.722 177.5,209C 184.952,216.736 189.618,225.903 191.5,236.5C 191.5,240.5 191.5,244.5 191.5,248.5C 191.552,250.903 191.219,253.236 190.5,255.5C 189.962,257.117 189.629,258.784 189.5,260.5C 188.407,264.454 186.74,268.12 184.5,271.5C 183.752,273.332 182.752,274.999 181.5,276.5C 178.833,278.5 176.5,280.833 174.5,283.5C 171.162,284.836 167.829,286.169 164.5,287.5C 160.818,287.665 157.152,287.499 153.5,287C 143.427,283.094 136.094,276.26 131.5,266.5C 129.275,260.708 127.941,254.708 127.5,248.5C 127.5,245.833 127.5,243.167 127.5,240.5C 127.942,233.512 129.608,226.845 132.5,220.5C 134.164,217.841 135.83,215.175 137.5,212.5C 142.56,206.803 148.893,203.47 156.5,202.5 Z"/></g>
<g><path style="opacity:1" fill="#151f21" d="M 355.5,202.5 C 362.175,203.67 367.841,206.67 372.5,211.5C 376.644,217.457 379.978,223.79 382.5,230.5C 383.241,236.471 383.575,242.471 383.5,248.5C 382.797,254.645 381.464,260.645 379.5,266.5C 377.828,269.022 376.328,271.688 375,274.5C 367.894,284.137 358.394,288.47 346.5,287.5C 343.171,286.169 339.838,284.836 336.5,283.5C 334.5,280.833 332.167,278.5 329.5,276.5C 328.154,274.463 326.82,272.463 325.5,270.5C 323.971,267.246 322.638,263.913 321.5,260.5C 321.371,258.784 321.038,257.117 320.5,255.5C 319.781,253.236 319.448,250.903 319.5,248.5C 319.5,244.5 319.5,240.5 319.5,236.5C 320.903,229.463 323.403,222.796 327,216.5C 333.652,206.091 343.152,201.424 355.5,202.5 Z"/></g>
<g><path style="opacity:1" fill="#283a42" d="M 164.5,226.5 C 160.074,228.359 158.574,231.692 160,236.5C 161.223,241.562 164.39,244.229 169.5,244.5C 169.5,242.833 169.5,241.167 169.5,239.5C 170.565,247.02 169.398,254.354 166,261.5C 161.667,266.833 157.333,266.833 153,261.5C 152,259.167 151,256.833 150,254.5C 149.333,247.833 149.333,241.167 150,234.5C 151.605,229.401 154.772,225.734 159.5,223.5C 161.445,224.128 163.112,225.128 164.5,226.5 Z"/></g>
<g><path style="opacity:1" fill="#283a42" d="M 356.5,226.5 C 352.074,228.359 350.574,231.692 352,236.5C 353.223,241.562 356.39,244.229 361.5,244.5C 361.5,242.833 361.5,241.167 361.5,239.5C 362.565,247.02 361.398,254.354 358,261.5C 353.667,266.833 349.333,266.833 345,261.5C 344,259.167 343,256.833 342,254.5C 341.333,247.833 341.333,241.167 342,234.5C 343.605,229.401 346.772,225.734 351.5,223.5C 353.445,224.128 355.112,225.128 356.5,226.5 Z"/></g>
<g><path style="opacity:1" fill="#eef2f6" d="M 164.5,226.5 C 167.56,230.289 169.227,234.622 169.5,239.5C 169.5,241.167 169.5,242.833 169.5,244.5C 164.39,244.229 161.223,241.562 160,236.5C 158.574,231.692 160.074,228.359 164.5,226.5 Z"/></g>
<g><path style="opacity:1" fill="#eef2f6" d="M 356.5,226.5 C 359.56,230.289 361.227,234.622 361.5,239.5C 361.5,241.167 361.5,242.833 361.5,244.5C 356.39,244.229 353.223,241.562 352,236.5C 350.574,231.692 352.074,228.359 356.5,226.5 Z"/></g>
<g><path style="opacity:1" fill="#9da6aa" d="M 191.5,236.5 C 195.805,239.323 200.138,242.156 204.5,245C 244.584,264.07 282.917,261.236 319.5,236.5C 319.5,240.5 319.5,244.5 319.5,248.5C 289.643,266.864 257.643,271.697 223.5,263C 211.936,259.986 201.27,255.153 191.5,248.5C 191.5,244.5 191.5,240.5 191.5,236.5 Z"/></g>
<g><path style="opacity:1" fill="#a5a9a4" d="M 191.5,248.5 C 201.27,255.153 211.936,259.986 223.5,263C 257.643,271.697 289.643,266.864 319.5,248.5C 319.448,250.903 319.781,253.236 320.5,255.5C 288.576,273.178 254.909,277.345 219.5,268C 209.342,264.92 199.675,260.753 190.5,255.5C 191.219,253.236 191.552,250.903 191.5,248.5 Z"/></g>
<g><path style="opacity:1" fill="#abaca0" d="M 190.5,255.5 C 199.675,260.753 209.342,264.92 219.5,268C 254.909,277.345 288.576,273.178 320.5,255.5C 321.038,257.117 321.371,258.784 321.5,260.5C 277.5,283.167 233.5,283.167 189.5,260.5C 189.629,258.784 189.962,257.117 190.5,255.5 Z"/></g>
<g><path style="opacity:1" fill="#b5b198" d="M 189.5,260.5 C 233.5,283.167 277.5,283.167 321.5,260.5C 322.638,263.913 323.971,267.246 325.5,270.5C 280.402,292.535 235.069,293.035 189.5,272C 187.866,271.506 186.199,271.34 184.5,271.5C 186.74,268.12 188.407,264.454 189.5,260.5 Z"/></g>
<g><path style="opacity:1" fill="#fdb739" d="M 489.5,265.5 C 483.793,349.451 445.46,413.617 374.5,458C 295.149,501.29 215.816,501.29 136.5,458C 66.4196,414.378 28.0863,351.211 21.5,268.5C 33.7513,332.64 69.7513,381.807 129.5,416C 204.141,453.99 280.475,457.657 358.5,427C 431.674,395.201 475.341,341.367 489.5,265.5 Z"/></g>
<g><path style="opacity:1" fill="#bfb591" d="M 325.5,270.5 C 326.82,272.463 328.154,274.463 329.5,276.5C 280.167,300.5 230.833,300.5 181.5,276.5C 182.752,274.999 183.752,273.332 184.5,271.5C 186.199,271.34 187.866,271.506 189.5,272C 235.069,293.035 280.402,292.535 325.5,270.5 Z"/></g>
<g><path style="opacity:1" fill="#c8b98a" d="M 181.5,276.5 C 230.833,300.5 280.167,300.5 329.5,276.5C 332.167,278.5 334.5,280.833 336.5,283.5C 282.5,310.167 228.5,310.167 174.5,283.5C 176.5,280.833 178.833,278.5 181.5,276.5 Z"/></g>
<g><path style="opacity:1" fill="#d2be83" d="M 174.5,283.5 C 228.5,310.167 282.5,310.167 336.5,283.5C 339.838,284.836 343.171,286.169 346.5,287.5C 338.119,293.024 329.119,297.524 319.5,301C 306.405,305.018 293.405,308.851 280.5,312.5C 264.923,307.764 249.256,307.431 233.5,311.5C 208.834,308.278 185.834,300.278 164.5,287.5C 167.829,286.169 171.162,284.836 174.5,283.5 Z"/></g>
<g><path style="opacity:1" fill="#141e21" d="M 280.5,312.5 C 285.38,314.273 290.047,316.607 294.5,319.5C 296.228,321.226 298.228,322.559 300.5,323.5C 301.5,325.167 302.833,326.5 304.5,327.5C 305.5,329.167 306.833,330.5 308.5,331.5C 319.917,344.336 325.083,359.336 324,376.5C 322.878,378.624 321.378,380.457 319.5,382C 298.062,383.151 276.562,383.651 255,383.5C 233.747,383.656 212.58,383.156 191.5,382C 189.622,380.457 188.122,378.624 187,376.5C 185.924,359.325 191.09,344.325 202.5,331.5C 203.5,331.167 204.167,330.5 204.5,329.5C 206.833,327.833 208.833,325.833 210.5,323.5C 212.23,322.974 213.564,321.974 214.5,320.5C 220.408,316.714 226.742,313.714 233.5,311.5C 249.256,307.431 264.923,307.764 280.5,312.5 Z"/></g>
<g><path style="opacity:1" fill="#263840" d="M 244.5,330.5 C 264.06,327.741 280.56,333.407 294,347.5C 297.571,351.975 300.071,356.975 301.5,362.5C 270.833,362.5 240.167,362.5 209.5,362.5C 215.462,345.536 227.129,334.869 244.5,330.5 Z"/></g>
</svg>
