<?xml version="1.0" encoding="UTF-8"?>
<!DOCTYPE svg PUBLIC "-//W3C//DTD SVG 1.1//EN" "http://www.w3.org/Graphics/SVG/1.1/DTD/svg11.dtd">
<svg xmlns="http://www.w3.org/2000/svg" version="1.1" width="512px" height="512px" style="shape-rendering:geometricPrecision; text-rendering:geometricPrecision; image-rendering:optimizeQuality; fill-rule:evenodd; clip-rule:evenodd" xmlns:xlink="http://www.w3.org/1999/xlink">
<g><path style="opacity:0.985" fill="#000000" d="M 192.5,-0.5 C 201.167,-0.5 209.833,-0.5 218.5,-0.5C 237.014,2.92301 253.347,10.923 267.5,23.5C 284.963,17.762 301.296,19.9286 316.5,30C 321.172,33.8736 325.505,38.0403 329.5,42.5C 361.708,35.1829 383.542,46.8496 395,77.5C 399.514,98.7917 393.514,116.458 377,130.5C 376.5,140.494 376.334,150.494 376.5,160.5C 396.503,160.333 416.503,160.5 436.5,161C 458.408,166.944 471.574,181.111 476,203.5C 476.667,265.167 476.667,326.833 476,388.5C 471.574,410.889 458.408,425.056 436.5,431C 416.503,431.5 396.503,431.667 376.5,431.5C 376.667,443.838 376.5,456.171 376,468.5C 371.47,490.972 358.303,505.305 336.5,511.5C 262.833,511.5 189.167,511.5 115.5,511.5C 95.3793,506.332 82.5459,493.666 77,473.5C 75.6843,408.536 75.0176,343.536 75,278.5C 56.795,282.898 43.795,276.564 36,259.5C 34.3533,212.879 34.02,166.212 35,119.5C 41.358,81.1486 62.858,55.6486 99.5,43C 109.672,40.4516 120.006,39.1183 130.5,39C 145.877,17.4432 166.544,4.27653 192.5,-0.5 Z M 376.5,220.5 C 389.5,220.5 402.5,220.5 415.5,220.5C 415.5,270.833 415.5,321.167 415.5,371.5C 402.5,371.5 389.5,371.5 376.5,371.5C 376.5,321.167 376.5,270.833 376.5,220.5 Z"/></g>
<g><path style="opacity:1" fill="#fce2c9" d="M 195.5,19.5 C 213.69,17.7141 230.356,21.8808 245.5,32C 250.833,36.6667 256.167,41.3333 261.5,46C 263.5,46.6667 265.5,46.6667 267.5,46C 284.038,36.7523 298.538,39.2523 311,53.5C 312.84,59.0403 316.006,63.5403 320.5,67C 322.5,67.6667 324.5,67.6667 326.5,67C 343.162,56.7866 357.995,58.9533 371,73.5C 376.653,83.9655 376.986,94.6321 372,105.5C 360.423,120.911 345.923,124.411 328.5,116C 322.799,114.435 318.633,116.268 316,121.5C 315.978,152.561 315.311,183.561 314,214.5C 307.924,221.099 301.924,221.099 296,214.5C 294.702,194.231 294.035,173.898 294,153.5C 289.869,137.369 279.702,127.202 263.5,123C 254.249,121.011 244.916,120.344 235.5,121C 228.333,124.086 221.999,128.419 216.5,134C 202.5,141.333 188.5,141.333 174.5,134C 168.402,127.568 161.069,123.234 152.5,121C 144.185,119.406 137.352,121.906 132,128.5C 122.425,149.063 106.259,159.563 83.5,160C 81.4127,160.792 79.5793,161.959 78,163.5C 76.6826,192.414 76.0159,221.414 76,250.5C 73.3238,259.087 67.8238,261.587 59.5,258C 57.3834,256.269 55.8834,254.102 55,251.5C 54.3333,208.5 54.3333,165.5 55,122.5C 60.9617,90.2039 79.795,69.7039 111.5,61C 121.573,60.9242 131.573,60.2575 141.5,59C 153.779,37.8718 171.779,24.7051 195.5,19.5 Z"/></g>
<g><path style="opacity:1" fill="#f9c250" d="M 315.5,461.5 C 308.833,461.5 302.167,461.5 295.5,461.5C 294.213,452.37 289.213,449.204 280.5,452C 277.108,454.285 275.441,457.452 275.5,461.5C 268.833,461.5 262.167,461.5 255.5,461.5C 255.303,456.28 252.636,453.113 247.5,452C 196.834,451.5 146.168,451.333 95.5,451.5C 95.5,360.5 95.5,269.5 95.5,178.5C 111.334,176.5 124.834,169.833 136,158.5C 140.755,152.594 145.255,146.594 149.5,140.5C 155.733,145.552 162.399,150.052 169.5,154C 195.661,164.53 218.994,160.196 239.5,141C 249.922,139.551 259.588,141.551 268.5,147C 270.956,149.408 272.789,152.241 274,155.5C 274.988,177.175 275.988,198.842 277,220.5C 280.184,229.521 286.351,235.188 295.5,237.5C 295.333,293.168 295.5,348.834 296,404.5C 299.293,410.612 304.127,412.112 310.5,409C 312.049,407.786 313.215,406.286 314,404.5C 314.5,348.834 314.667,293.168 314.5,237.5C 325.069,234.415 331.569,227.415 334,216.5C 334.5,190.835 334.667,165.169 334.5,139.5C 341.817,140.682 349.15,140.682 356.5,139.5C 356.5,243.5 356.5,347.5 356.5,451.5C 344.829,451.333 333.162,451.5 321.5,452C 317.844,454.149 315.844,457.316 315.5,461.5 Z"/></g>
<g><path style="opacity:1" fill="#90dfe6" d="M 375.5,180.5 C 394.503,180.333 413.503,180.5 432.5,181C 445.181,185.015 453.014,193.515 456,206.5C 456.667,266.167 456.667,325.833 456,385.5C 453.005,398.493 445.172,406.993 432.5,411C 413.503,411.5 394.503,411.667 375.5,411.5C 375.5,404.833 375.5,398.167 375.5,391.5C 393.17,391.667 410.836,391.5 428.5,391C 430.848,390.654 432.681,389.487 434,387.5C 435.16,357.084 435.66,326.584 435.5,296C 435.66,265.416 435.16,234.916 434,204.5C 432.681,202.513 430.848,201.346 428.5,201C 410.836,200.5 393.17,200.333 375.5,200.5C 375.5,193.833 375.5,187.167 375.5,180.5 Z"/></g>
<g><path style="opacity:1" fill="#000000" d="M 142.5,199.5 C 147.55,199.274 151.383,201.274 154,205.5C 154.667,271.833 154.667,338.167 154,404.5C 151.081,410.025 146.581,411.858 140.5,410C 138.622,408.457 137.122,406.624 136,404.5C 135.333,338.167 135.333,271.833 136,205.5C 137.494,202.686 139.66,200.686 142.5,199.5 Z"/></g>
<g><path style="opacity:1" fill="#000000" d="M 222.5,199.5 C 227.55,199.274 231.383,201.274 234,205.5C 234.667,271.833 234.667,338.167 234,404.5C 231.081,410.025 226.581,411.858 220.5,410C 218.622,408.457 217.122,406.624 216,404.5C 215.333,338.167 215.333,271.833 216,205.5C 217.494,202.686 219.66,200.686 222.5,199.5 Z"/></g>
<g><path style="opacity:1" fill="#080705" d="M 295.5,461.5 C 293.167,470.165 287.833,472.665 279.5,469C 277.505,466.843 276.172,464.343 275.5,461.5C 275.441,457.452 277.108,454.285 280.5,452C 289.213,449.204 294.213,452.37 295.5,461.5 Z"/></g>
<g><path style="opacity:1" fill="#94e6ed" d="M 255.5,461.5 C 262.167,461.5 268.833,461.5 275.5,461.5C 276.172,464.343 277.505,466.843 279.5,469C 287.833,472.665 293.167,470.165 295.5,461.5C 302.167,461.5 308.833,461.5 315.5,461.5C 316.081,465.92 318.414,469.086 322.5,471C 332.828,471.5 343.161,471.666 353.5,471.5C 349.844,481.981 342.511,488.481 331.5,491C 260.833,491.667 190.167,491.667 119.5,491C 109.406,487.909 102.073,481.576 97.5,472C 147.5,471.667 197.5,471.333 247.5,471C 252.613,469.962 255.28,466.795 255.5,461.5 Z"/></g>
</svg>
