<?xml version="1.0" encoding="UTF-8"?>
<!DOCTYPE svg PUBLIC "-//W3C//DTD SVG 1.1//EN" "http://www.w3.org/Graphics/SVG/1.1/DTD/svg11.dtd">
<svg xmlns="http://www.w3.org/2000/svg" version="1.1" width="512px" height="512px" style="shape-rendering:geometricPrecision; text-rendering:geometricPrecision; image-rendering:optimizeQuality; fill-rule:evenodd; clip-rule:evenodd" xmlns:xlink="http://www.w3.org/1999/xlink">
<g><path style="opacity:0.948" fill="#fe9900" d="M 180.5,69.5 C 176.638,56.3061 168.304,47.3061 155.5,42.5C 161.179,36.4876 165.346,29.4876 168,21.5C 170,20.1667 172,20.1667 174,21.5C 176.611,29.8977 181.111,37.0644 187.5,43C 192.531,45.5156 197.531,48.0156 202.5,50.5C 203.833,52.1667 203.833,53.8333 202.5,55.5C 193.837,58.1797 186.503,62.8463 180.5,69.5 Z"/></g>
<g><path style="opacity:1" fill="#fb8900" d="M 155.5,42.5 C 168.304,47.3061 176.638,56.3061 180.5,69.5C 177.984,74.3656 175.651,79.3656 173.5,84.5C 172.232,85.4279 170.899,85.5946 169.5,85C 166.298,80.0831 163.464,74.9165 161,69.5C 155.241,62.7019 148.074,58.0352 139.5,55.5C 138.233,53.6293 138.233,51.7959 139.5,50C 145.006,47.7453 150.34,45.2453 155.5,42.5 Z"/></g>
<g><path style="opacity:0.944" fill="#fe9900" d="M 351.5,96.5 C 347.17,83.5038 338.504,74.8371 325.5,70.5C 331.179,64.4876 335.346,57.4876 338,49.5C 339.726,48.4238 341.559,48.2571 343.5,49C 346.383,58.4542 351.717,66.1208 359.5,72C 363.749,74.1935 368.082,76.1935 372.5,78C 373.935,80.2672 373.602,82.2672 371.5,84C 363.66,86.4133 356.993,90.5799 351.5,96.5 Z"/></g>
<g><path style="opacity:1" fill="#fedf30" d="M 267.5,80.5 C 257.839,90.3282 248.339,100.328 239,110.5C 238.333,111.833 238.333,113.167 239,114.5C 248.248,123.077 256.748,132.244 264.5,142C 228.732,230.029 193.399,318.196 158.5,406.5C 150.167,406.5 141.833,406.5 133.5,406.5C 147.562,371.98 161.228,337.313 174.5,302.5C 185.662,278.024 195.662,253.024 204.5,227.5C 216.528,199.26 228.195,170.76 239.5,142C 232.082,132.578 223.915,123.744 215,115.5C 213.813,113.956 213.48,112.289 214,110.5C 226.137,97.3623 238.637,84.5289 251.5,72C 254.167,70 256.833,70 259.5,72C 262.371,74.7028 265.038,77.5361 267.5,80.5 Z"/></g>
<g><path style="opacity:1" fill="#fb8800" d="M 325.5,70.5 C 338.504,74.8371 347.17,83.5038 351.5,96.5C 348.486,101.195 345.986,106.195 344,111.5C 342.867,113.211 341.367,113.711 339.5,113C 336.476,106.453 332.81,100.286 328.5,94.5C 326.684,93.1851 325.017,91.6851 323.5,90C 318.557,87.6125 313.724,85.1125 309,82.5C 308.28,80.8876 308.446,79.3876 309.5,78C 315.006,75.7453 320.34,73.2453 325.5,70.5 Z"/></g>
<g><path style="opacity:0.998" fill="#fde359" d="M 267.5,80.5 C 278.376,90.2082 288.376,100.708 297.5,112C 290.082,121.422 281.915,130.256 273,138.5C 272.362,139.609 271.862,140.775 271.5,142C 282.805,170.76 294.472,199.26 306.5,227.5C 308.094,233.949 310.094,240.282 312.5,246.5C 320.537,265.897 328.537,285.23 336.5,304.5C 337.972,308.917 339.638,313.25 341.5,317.5C 353.223,347.28 365.223,376.947 377.5,406.5C 304.5,406.5 231.5,406.5 158.5,406.5C 193.399,318.196 228.732,230.029 264.5,142C 256.748,132.244 248.248,123.077 239,114.5C 238.333,113.167 238.333,111.833 239,110.5C 248.339,100.328 257.839,90.3282 267.5,80.5 Z"/></g>
<g><path style="opacity:0.993" fill="#fee459" d="M 126.5,118.5 C 141.703,119.537 149.703,127.703 150.5,143C 150.454,149.088 148.454,154.422 144.5,159C 163.993,182.323 183.993,205.156 204.5,227.5C 195.662,253.024 185.662,278.024 174.5,302.5C 155.143,288.135 135.81,273.802 116.5,259.5C 123.295,226.856 129.962,194.19 136.5,161.5C 136.392,160.558 136.059,159.725 135.5,159C 123.419,153.344 118.253,143.844 120,130.5C 121.923,126.318 124.089,122.318 126.5,118.5 Z"/></g>
<g><path style="opacity:1" fill="#fedf31" d="M 126.5,118.5 C 124.089,122.318 121.923,126.318 120,130.5C 118.253,143.844 123.419,153.344 135.5,159C 136.059,159.725 136.392,160.558 136.5,161.5C 129.962,194.19 123.295,226.856 116.5,259.5C 111.235,256.565 106.568,252.899 102.5,248.5C 107.254,221.562 112.588,194.729 118.5,168C 116.286,165.542 113.619,163.542 110.5,162C 98.0592,147.979 98.7258,134.646 112.5,122C 116.785,119.294 121.452,118.127 126.5,118.5 Z"/></g>
<g><path style="opacity:1" fill="#fed403" d="M 398.5,122.5 C 380.931,130.658 376.764,143.324 386,160.5C 386.667,161.833 386.667,163.167 386,164.5C 361.954,192.372 337.454,219.705 312.5,246.5C 310.094,240.282 308.094,233.949 306.5,227.5C 327.007,205.156 347.007,182.323 366.5,159C 358.454,147.733 358.621,136.567 367,125.5C 373.979,119.065 382.146,116.899 391.5,119C 394.174,119.67 396.507,120.837 398.5,122.5 Z"/></g>
<g><path style="opacity:0.993" fill="#fede2f" d="M 398.5,122.5 C 410.778,132.813 412.612,144.813 404,158.5C 400.106,161.74 396.273,164.907 392.5,168C 398.412,194.729 403.746,221.562 408.5,248.5C 385.414,266.223 362.08,283.723 338.5,301C 337.177,301.816 336.511,302.983 336.5,304.5C 328.537,285.23 320.537,265.897 312.5,246.5C 337.454,219.705 361.954,192.372 386,164.5C 386.667,163.167 386.667,161.833 386,160.5C 376.764,143.324 380.931,130.658 398.5,122.5 Z"/></g>
<g><path style="opacity:0.998" fill="#fdd402" d="M 102.5,248.5 C 106.568,252.899 111.235,256.565 116.5,259.5C 135.81,273.802 155.143,288.135 174.5,302.5C 161.228,337.313 147.562,371.98 133.5,406.5C 118.167,406.5 102.833,406.5 87.5,406.5C 72.8605,341.138 58.0272,275.804 43,210.5C 42.7265,208.671 41.8932,207.171 40.5,206C 18.035,204.229 9.36837,192.396 14.5,170.5C 30.2079,165.797 41.0413,171.131 47,186.5C 47.9254,192.471 47.4254,198.305 45.5,204C 45.8623,205.225 46.3623,206.391 47,207.5C 65.4406,221.298 83.9406,234.964 102.5,248.5 Z"/></g>
<g><path style="opacity:1" fill="#fac600" d="M 505.5,176.5 C 489.603,176.73 480.603,184.73 478.5,200.5C 479.986,205.085 480.486,209.752 480,214.5C 434.238,249.436 388.071,283.769 341.5,317.5C 339.638,313.25 337.972,308.917 336.5,304.5C 336.511,302.983 337.177,301.816 338.5,301C 362.08,283.723 385.414,266.223 408.5,248.5C 427.122,235.051 445.622,221.384 464,207.5C 465.805,204.878 465.805,202.211 464,199.5C 461.823,178.346 471.323,168.179 492.5,169C 497.804,169.98 502.137,172.48 505.5,176.5 Z"/></g>
<g><path style="opacity:0.999" fill="#fac600" d="M 14.5,170.5 C 9.36837,192.396 18.035,204.229 40.5,206C 41.8932,207.171 42.7265,208.671 43,210.5C 58.0272,275.804 72.8605,341.138 87.5,406.5C 81.8333,406.5 76.1667,406.5 70.5,406.5C 56.7367,344.521 42.9033,282.521 29,220.5C 28.6258,219.584 28.1258,218.75 27.5,218C 14.084,218.373 4.75063,212.54 -0.5,200.5C -0.5,195.5 -0.5,190.5 -0.5,185.5C 2.1603,178.173 7.1603,173.173 14.5,170.5 Z"/></g>
<g><path style="opacity:0.996" fill="#fdd402" d="M 505.5,176.5 C 507.748,179.328 509.748,182.328 511.5,185.5C 511.5,190.5 511.5,195.5 511.5,200.5C 506.249,212.54 496.916,218.373 483.5,218C 483,218.5 482.5,219 482,219.5C 468.223,281.887 454.39,344.221 440.5,406.5C 419.5,406.5 398.5,406.5 377.5,406.5C 365.223,376.947 353.223,347.28 341.5,317.5C 388.071,283.769 434.238,249.436 480,214.5C 480.486,209.752 479.986,205.085 478.5,200.5C 480.603,184.73 489.603,176.73 505.5,176.5 Z"/></g>
<g><path style="opacity:1" fill="#824ca1" d="M 267.5,277.5 C 260.238,287.265 253.571,297.432 247.5,308C 253.963,318.63 260.63,329.13 267.5,339.5C 264.223,345.107 260.223,350.107 255.5,354.5C 243.085,339.857 231.752,324.357 221.5,308C 231.764,292.733 242.43,277.733 253.5,263C 255.701,262.175 257.534,262.675 259,264.5C 262.082,268.734 264.916,273.067 267.5,277.5 Z"/></g>
<g><path style="opacity:1" fill="#925cb3" d="M 267.5,277.5 C 275.474,286.978 282.474,297.145 288.5,308C 282.087,318.909 275.087,329.409 267.5,339.5C 260.63,329.13 253.963,318.63 247.5,308C 253.571,297.432 260.238,287.265 267.5,277.5 Z"/></g>
<g><path style="opacity:1" fill="#fb8800" d="M 70.5,407.5 C 86.5,407.5 102.5,407.5 118.5,407.5C 118.5,418.167 118.5,428.833 118.5,439.5C 113.891,441.725 112.391,445.391 114,450.5C 115.371,452.041 116.871,453.375 118.5,454.5C 118.333,465.505 118.5,476.505 119,487.5C 120.145,488.636 121.312,489.636 122.5,490.5C 106.163,490.667 89.8299,490.5 73.5,490C 72.6919,489.692 72.0253,489.192 71.5,488.5C 70.5089,461.544 70.1756,434.544 70.5,407.5 Z"/></g>
<g><path style="opacity:0.992" fill="#fe9901" d="M 70.5,407.5 C 70.5,407.167 70.5,406.833 70.5,406.5C 76.1667,406.5 81.8333,406.5 87.5,406.5C 102.833,406.5 118.167,406.5 133.5,406.5C 141.833,406.5 150.167,406.5 158.5,406.5C 231.5,406.5 304.5,406.5 377.5,406.5C 398.5,406.5 419.5,406.5 440.5,406.5C 440.667,433.502 440.5,460.502 440,487.5C 439.5,488.667 438.667,489.5 437.5,490C 332.501,490.5 227.501,490.667 122.5,490.5C 121.312,489.636 120.145,488.636 119,487.5C 118.5,476.505 118.333,465.505 118.5,454.5C 127.528,453.527 129.861,449.027 125.5,441C 123.323,439.798 120.989,439.298 118.5,439.5C 118.5,428.833 118.5,418.167 118.5,407.5C 102.5,407.5 86.5,407.5 70.5,407.5 Z"/></g>
<g><path style="opacity:1" fill="#fed201" d="M 118.5,439.5 C 120.989,439.298 123.323,439.798 125.5,441C 129.861,449.027 127.528,453.527 118.5,454.5C 116.871,453.375 115.371,452.041 114,450.5C 112.391,445.391 113.891,441.725 118.5,439.5 Z"/></g>
<g><path style="opacity:1" fill="#fed201" d="M 171.5,439.5 C 179.775,438.706 182.942,442.373 181,450.5C 176.585,455.726 172.251,455.726 168,450.5C 166.663,445.872 167.83,442.205 171.5,439.5 Z"/></g>
<g><path style="opacity:1" fill="#fed201" d="M 225.5,439.5 C 233.775,438.706 236.942,442.373 235,450.5C 230.585,455.726 226.251,455.726 222,450.5C 220.663,445.872 221.83,442.205 225.5,439.5 Z"/></g>
<g><path style="opacity:1" fill="#fed201" d="M 279.5,439.5 C 287.775,438.706 290.942,442.373 289,450.5C 284.585,455.726 280.251,455.726 276,450.5C 274.663,445.872 275.83,442.205 279.5,439.5 Z"/></g>
<g><path style="opacity:1" fill="#fed201" d="M 333.5,439.5 C 341.775,438.706 344.942,442.373 343,450.5C 338.585,455.726 334.251,455.726 330,450.5C 328.663,445.872 329.83,442.205 333.5,439.5 Z"/></g>
<g><path style="opacity:1" fill="#fed201" d="M 387.5,439.5 C 395.775,438.706 398.942,442.373 397,450.5C 392.585,455.726 388.251,455.726 384,450.5C 382.663,445.872 383.83,442.205 387.5,439.5 Z"/></g>
</svg>
