<?xml version="1.0" encoding="UTF-8"?>
<!DOCTYPE svg PUBLIC "-//W3C//DTD SVG 1.1//EN" "http://www.w3.org/Graphics/SVG/1.1/DTD/svg11.dtd">
<svg xmlns="http://www.w3.org/2000/svg" version="1.1" width="512px" height="512px" style="shape-rendering:geometricPrecision; text-rendering:geometricPrecision; image-rendering:optimizeQuality; fill-rule:evenodd; clip-rule:evenodd" xmlns:xlink="http://www.w3.org/1999/xlink">
<g><path style="opacity:0.961" fill="#000000" d="M 182.5,-0.5 C 188.167,-0.5 193.833,-0.5 199.5,-0.5C 204.793,0.660356 210.126,2.16036 215.5,4C 311.827,58.828 407.827,114.161 503.5,170C 506.783,172.772 509.45,175.939 511.5,179.5C 511.5,183.167 511.5,186.833 511.5,190.5C 508.405,195.43 504.405,199.597 499.5,203C 450.167,231.667 400.833,260.333 351.5,289C 330.334,299.233 309.334,298.9 288.5,288C 198.092,235.267 107.425,182.934 16.5,131C 7.67982,127.028 2.01316,120.528 -0.5,111.5C -0.5,111.167 -0.5,110.833 -0.5,110.5C 1.22217,102.916 5.5555,97.0822 12.5,93C 63.8333,63.3333 115.167,33.6667 166.5,4C 171.874,2.16036 177.207,0.660356 182.5,-0.5 Z M 156.5,39.5 C 166.776,46.7555 178.276,50.0888 191,49.5C 203.695,50.0995 215.195,46.7662 225.5,39.5C 297.337,81.2527 369.337,122.753 441.5,164C 435.171,166.665 429.671,170.498 425,175.5C 420.3,185.151 422.133,193.318 430.5,200C 434.007,202.254 437.673,204.254 441.5,206C 411.918,223.04 382.418,240.207 353,257.5C 342.349,249.665 330.349,245.665 317,245.5C 304.924,245.451 293.924,248.784 284,255.5C 212.582,213.874 141.082,172.374 69.5,131C 76.2631,127.869 81.4297,123.036 85,116.5C 87.1152,108.406 84.9485,101.74 78.5,96.5C 75.6319,94.4682 72.6319,92.6349 69.5,91C 98.5632,73.8071 127.563,56.6404 156.5,39.5 Z M 293.5,120.5 C 296.924,121.379 299.924,123.046 302.5,125.5C 300.5,127.5 298.5,129.5 296.5,131.5C 299.368,134.532 302.035,137.698 304.5,141C 301.1,143.322 297.267,144.822 293,145.5C 292.167,145.333 291.333,145.167 290.5,145C 287.084,140.913 283.084,137.58 278.5,135C 273.467,132.898 268.633,133.065 264,135.5C 263.333,137.5 263.333,139.5 264,141.5C 277.715,156.907 274.548,167.073 254.5,172C 246.249,172.807 238.082,172.307 230,170.5C 225.575,171.135 221.408,172.468 217.5,174.5C 213.963,174.065 210.963,172.565 208.5,170C 211.052,168.229 213.385,166.229 215.5,164C 212.716,160.213 209.549,156.713 206,153.5C 205.383,152.551 205.549,151.718 206.5,151C 211.001,148.937 215.667,147.937 220.5,148C 225.943,156.387 233.609,161.22 243.5,162.5C 246.167,161.877 248.667,160.877 251,159.5C 251.667,157.5 251.667,155.5 251,153.5C 247.401,148.238 244.235,142.738 241.5,137C 243.921,129.925 248.921,125.592 256.5,124C 265.617,121.956 274.617,122.456 283.5,125.5C 287.168,124.333 290.502,122.666 293.5,120.5 Z"/></g>
<g><path style="opacity:0.941" fill="#000000" d="M 154.5,79.5 C 164.822,78.1692 174.489,80.0025 183.5,85C 190.3,91.6781 189.967,98.0114 182.5,104C 169.5,111.333 156.5,111.333 143.5,104C 135.511,97.3812 135.511,90.7145 143.5,84C 147.157,82.1776 150.824,80.6776 154.5,79.5 Z"/></g>
<g><path style="opacity:0.964" fill="#000000" d="M 242.5,95.5 C 267.115,93.7139 290.782,97.5472 313.5,107C 323.868,111.777 332.702,118.61 340,127.5C 351.538,148.907 347.371,166.74 327.5,181C 310.58,192.307 291.913,198.64 271.5,200C 240.214,203.611 211.214,197.278 184.5,181C 165.241,167.233 160.741,149.733 171,128.5C 184.302,112.922 201.136,103.088 221.5,99C 228.608,97.5932 235.608,96.4265 242.5,95.5 Z M 293.5,120.5 C 290.502,122.666 287.168,124.333 283.5,125.5C 274.617,122.456 265.617,121.956 256.5,124C 248.921,125.592 243.921,129.925 241.5,137C 244.235,142.738 247.401,148.238 251,153.5C 251.667,155.5 251.667,157.5 251,159.5C 248.667,160.877 246.167,161.877 243.5,162.5C 233.609,161.22 225.943,156.387 220.5,148C 215.667,147.937 211.001,148.937 206.5,151C 205.549,151.718 205.383,152.551 206,153.5C 209.549,156.713 212.716,160.213 215.5,164C 213.385,166.229 211.052,168.229 208.5,170C 210.963,172.565 213.963,174.065 217.5,174.5C 221.408,172.468 225.575,171.135 230,170.5C 238.082,172.307 246.249,172.807 254.5,172C 274.548,167.073 277.715,156.907 264,141.5C 263.333,139.5 263.333,137.5 264,135.5C 268.633,133.065 273.467,132.898 278.5,135C 283.084,137.58 287.084,140.913 290.5,145C 291.333,145.167 292.167,145.333 293,145.5C 297.267,144.822 301.1,143.322 304.5,141C 302.035,137.698 299.368,134.532 296.5,131.5C 298.5,129.5 300.5,127.5 302.5,125.5C 299.924,123.046 296.924,121.379 293.5,120.5 Z"/></g>
<g><path style="opacity:0.951" fill="#000000" d="M -0.5,171.5 C -0.5,168.833 -0.5,166.167 -0.5,163.5C 6.85333,157.825 15.1867,155.992 24.5,158C 28.2857,159.393 31.9523,161.059 35.5,163C 131.082,218.04 226.582,273.207 322,328.5C 374.921,297.288 428.088,266.455 481.5,236C 490.114,233.529 498.447,234.196 506.5,238C 512.086,243.642 511.419,248.642 504.5,253C 448.67,285.081 393.003,317.414 337.5,350C 324.992,355.24 312.992,354.24 301.5,347C 203.997,290.414 106.33,234.081 8.5,178C 5.11703,176.314 2.11703,174.147 -0.5,171.5 Z"/></g>
<g><path style="opacity:0.94" fill="#000000" d="M 345.5,186.5 C 353.16,186.474 360.493,187.974 367.5,191C 376.355,197.635 376.688,204.635 368.5,212C 354.992,218.284 341.659,217.95 328.5,211C 321.596,204.284 321.929,197.951 329.5,192C 334.586,189.028 339.919,187.195 345.5,186.5 Z"/></g>
<g><path style="opacity:0.951" fill="#000000" d="M -0.5,223.5 C -0.5,221.5 -0.5,219.5 -0.5,217.5C 3.88545,212.076 9.71879,209.409 17,209.5C 22.0429,209.867 26.8762,211.034 31.5,213C 128.211,269.355 225.211,325.188 322.5,380.5C 375.463,350.016 428.463,319.516 481.5,289C 490.587,285.571 499.254,286.404 507.5,291.5C 511.011,294.893 511.344,298.559 508.5,302.5C 450.889,336.932 392.889,370.765 334.5,404C 325.414,407.154 316.414,406.821 307.5,403C 208.167,345.667 108.833,288.333 9.5,231C 5.69973,229.021 2.3664,226.521 -0.5,223.5 Z"/></g>
<g><path style="opacity:0.951" fill="#000000" d="M -0.5,276.5 C -0.5,274.167 -0.5,271.833 -0.5,269.5C 5.79956,263.242 13.4662,261.075 22.5,263C 25.5945,263.714 28.5945,264.714 31.5,266C 128.104,322.219 224.938,378.053 322,433.5C 375.402,402.547 428.902,371.714 482.5,341C 491.277,338.404 499.61,339.404 507.5,344C 511.512,348.643 511.179,352.977 506.5,357C 451.336,388.748 396.336,420.748 341.5,453C 328.51,460.287 315.51,460.287 302.5,453C 203.167,395.667 103.833,338.333 4.5,281C 2.63834,279.634 0.971672,278.134 -0.5,276.5 Z"/></g>
<g><path style="opacity:0.951" fill="#000000" d="M 326.5,511.5 C 323.5,511.5 320.5,511.5 317.5,511.5C 311.94,510.231 306.607,508.065 301.5,505C 203.092,447.601 104.425,390.601 5.5,334C 2.97739,332.64 0.977392,330.807 -0.5,328.5C -0.5,326.5 -0.5,324.5 -0.5,322.5C 1.04602,319.8 3.37935,317.967 6.5,317C 15.3217,313.871 23.9883,314.538 32.5,319C 128.918,374.96 225.418,430.793 322,486.5C 374.582,456.126 427.082,425.626 479.5,395C 488.061,390.8 496.728,390.8 505.5,395C 512.394,400.841 512.061,406.175 504.5,411C 449.336,442.748 394.336,474.748 339.5,507C 335.285,509.237 330.952,510.737 326.5,511.5 Z"/></g>
</svg>
