<?xml version="1.0" encoding="UTF-8"?>
<!DOCTYPE svg PUBLIC "-//W3C//DTD SVG 1.1//EN" "http://www.w3.org/Graphics/SVG/1.1/DTD/svg11.dtd">
<svg xmlns="http://www.w3.org/2000/svg" version="1.1" width="512px" height="512px" style="shape-rendering:geometricPrecision; text-rendering:geometricPrecision; image-rendering:optimizeQuality; fill-rule:evenodd; clip-rule:evenodd" xmlns:xlink="http://www.w3.org/1999/xlink">
<g><path style="opacity:0.973" fill="#FFFFFF" d="M 150.5,15.5 C 220.501,15.3333 290.501,15.5 360.5,16C 375.061,19.5604 384.894,28.3937 390,42.5C 391.158,97.456 391.658,152.456 391.5,207.5C 391.333,261.167 391.167,314.833 391,368.5C 386.833,384.667 376.667,394.833 360.5,399C 328.168,399.5 295.835,399.667 263.5,399.5C 262.904,424.459 255.071,446.792 240,466.5C 239.667,474.833 239.333,483.167 239,491.5C 237.471,494.516 234.971,495.849 231.5,495.5C 228.029,495.849 225.529,494.516 224,491.5C 223.333,480.833 223.333,470.167 224,459.5C 238.294,442.126 245.794,422.126 246.5,399.5C 229.83,399.667 213.163,399.5 196.5,399C 191.167,394 191.167,389 196.5,384C 248.167,383.667 299.833,383.333 351.5,383C 365.333,381.167 373.167,373.333 375,359.5C 375.167,308.833 375.333,258.167 375.5,207.5C 375.654,154.803 375.154,102.136 374,49.5C 370.295,38.7963 362.795,32.9629 351.5,32C 285.469,31.021 219.469,31.3543 153.5,33C 142.796,36.7046 136.963,44.2046 136,55.5C 135.667,119.167 135.333,182.833 135,246.5C 130,251.833 125,251.833 120,246.5C 119.667,237.833 119.333,229.167 119,220.5C 96.6667,242.833 74.3333,265.167 52,287.5C 44.2189,297.843 40.2189,309.509 40,322.5C 39.119,362.181 39.4523,401.847 41,441.5C 41.7437,446.552 42.7437,451.552 44,456.5C 47.5511,466.992 51.3845,477.325 55.5,487.5C 55.8494,490.971 54.516,493.471 51.5,495C 48.0357,495.817 44.7024,495.483 41.5,494C 29.1852,473.248 22.8519,450.748 22.5,426.5C 23.3157,387.516 23.8157,348.516 24,309.5C 26.4532,295.929 32.1199,283.929 41,273.5C 67,247.5 93,221.5 119,195.5C 119.333,145.833 119.667,96.1667 120,46.5C 124.349,30.3186 134.516,19.9852 150.5,15.5 Z M 254.5,111.5 C 269.119,112.973 277.453,120.973 279.5,135.5C 273.825,162.534 267.992,189.534 262,216.5C 260.789,221.71 257.623,223.544 252.5,222C 250.513,220.681 249.346,218.848 249,216.5C 243.008,189.534 237.175,162.534 231.5,135.5C 233.146,121.524 240.813,113.524 254.5,111.5 Z M 250.5,272.5 C 267.765,272.257 273.598,280.257 268,296.5C 261.749,303.011 254.582,304.177 246.5,300C 239.989,293.749 238.823,286.582 243,278.5C 245.114,275.879 247.614,273.879 250.5,272.5 Z"/></g>
<g><path style="opacity:0.915" fill="#FFFFFF" d="M 35.5,55.5 C 39.7924,55.0349 43.7924,55.8682 47.5,58C 60.1667,65.6667 72.8333,73.3333 85.5,81C 90.2053,91.6131 86.872,96.2798 75.5,95C 61.5,86.6667 47.5,78.3333 33.5,70C 31.5715,66.7441 31.0715,63.2441 32,59.5C 32.6897,57.6498 33.8564,56.3164 35.5,55.5 Z"/></g>
<g><path style="opacity:0.914" fill="#FFFFFF" d="M 467.5,55.5 C 474.615,53.8824 478.948,56.5491 480.5,63.5C 479.786,65.8111 478.786,67.9777 477.5,70C 463.5,78.3333 449.5,86.6667 435.5,95C 424.128,96.2798 420.795,91.6131 425.5,81C 439.73,72.7256 453.73,64.2256 467.5,55.5 Z"/></g>
<g><path style="opacity:0.931" fill="#FFFFFF" d="M 246.5,95.5 C 276.112,93.1277 292.778,106.628 296.5,136C 290.718,165.244 284.551,194.411 278,223.5C 271.748,238.153 260.915,242.986 245.5,238C 240.333,235.5 236.5,231.667 234,226.5C 226.797,196.317 220.297,165.984 214.5,135.5C 216.166,114.78 226.832,101.447 246.5,95.5 Z M 254.5,111.5 C 240.813,113.524 233.146,121.524 231.5,135.5C 237.175,162.534 243.008,189.534 249,216.5C 249.346,218.848 250.513,220.681 252.5,222C 257.623,223.544 260.789,221.71 262,216.5C 267.992,189.534 273.825,162.534 279.5,135.5C 277.453,120.973 269.119,112.973 254.5,111.5 Z"/></g>
<g><path style="opacity:0.976" fill="#FFFFFF" d="M 27.5,119.5 C 46.1696,119.333 64.8363,119.5 83.5,120C 85.3333,120.5 86.5,121.667 87,123.5C 87.6667,126.167 87.6667,128.833 87,131.5C 86.5,133.333 85.3333,134.5 83.5,135C 64.8333,135.667 46.1667,135.667 27.5,135C 24.484,133.471 23.1506,130.971 23.5,127.5C 23.2824,123.934 24.6157,121.268 27.5,119.5 Z"/></g>
<g><path style="opacity:0.976" fill="#FFFFFF" d="M 427.5,119.5 C 446.17,119.333 464.836,119.5 483.5,120C 485.333,120.5 486.5,121.667 487,123.5C 487.667,126.167 487.667,128.833 487,131.5C 486.5,133.333 485.333,134.5 483.5,135C 464.833,135.667 446.167,135.667 427.5,135C 424.484,133.471 423.151,130.971 423.5,127.5C 423.282,123.934 424.616,121.268 427.5,119.5 Z"/></g>
<g><path style="opacity:0.914" fill="#FFFFFF" d="M 75.5,159.5 C 82.6151,157.882 86.9485,160.549 88.5,167.5C 87.7865,169.811 86.7865,171.978 85.5,174C 71.5,182.333 57.5,190.667 43.5,199C 36.3883,201.115 32.055,198.615 30.5,191.5C 31.2135,189.189 32.2135,187.022 33.5,185C 47.7301,176.726 61.7301,168.226 75.5,159.5 Z"/></g>
<g><path style="opacity:0.914" fill="#FFFFFF" d="M 427.5,159.5 C 431.792,159.035 435.792,159.868 439.5,162C 452.167,169.667 464.833,177.333 477.5,185C 481.5,190.333 480.833,195 475.5,199C 472.833,199.667 470.167,199.667 467.5,199C 453.5,190.667 439.5,182.333 425.5,174C 421.604,168.525 422.271,163.692 427.5,159.5 Z"/></g>
<g><path style="opacity:0.928" fill="#FFFFFF" d="M 163.5,247.5 C 194.395,245.233 212.062,259.399 216.5,290C 216.036,301.735 211.869,311.901 204,320.5C 184.195,339.305 164.695,358.471 145.5,378C 173.425,387.267 188.758,406.6 191.5,436C 191.964,447.025 187.13,450.192 177,445.5C 174.153,411.987 155.987,393.82 122.5,391C 119.572,387.743 118.738,383.909 120,379.5C 145.695,354.139 171.028,328.472 196,302.5C 202.53,281.236 194.863,268.236 173,263.5C 168.267,264.189 163.767,265.689 159.5,268C 134.5,293 109.5,318 84.5,343C 77.212,346.505 72.5453,344.338 70.5,336.5C 71.154,334.885 71.654,333.218 72,331.5C 96.1383,306.361 120.638,281.528 145.5,257C 151.15,253.01 157.15,249.843 163.5,247.5 Z"/></g>
<g><path style="opacity:0.93" fill="#FFFFFF" d="M 247.5,255.5 C 275.978,253.811 289.145,267.144 287,295.5C 280.645,314.438 267.478,322.272 247.5,319C 228.556,312.632 220.723,299.466 224,279.5C 227.349,266.985 235.182,258.985 247.5,255.5 Z M 250.5,272.5 C 247.614,273.879 245.114,275.879 243,278.5C 238.823,286.582 239.989,293.749 246.5,300C 254.582,304.177 261.749,303.011 268,296.5C 273.598,280.257 267.765,272.257 250.5,272.5 Z"/></g>
</svg>
