<?xml version="1.0" encoding="UTF-8"?>
<!DOCTYPE svg PUBLIC "-//W3C//DTD SVG 1.1//EN" "http://www.w3.org/Graphics/SVG/1.1/DTD/svg11.dtd">
<svg xmlns="http://www.w3.org/2000/svg" version="1.1" width="512px" height="512px" style="shape-rendering:geometricPrecision; text-rendering:geometricPrecision; image-rendering:optimizeQuality; fill-rule:evenodd; clip-rule:evenodd" xmlns:xlink="http://www.w3.org/1999/xlink">
<g><path style="opacity:0.995" fill="#25b7d3" d="M 233.5,-0.5 C 248.167,-0.5 262.833,-0.5 277.5,-0.5C 377.805,11.9821 449.305,63.9821 492,155.5C 502.297,180.687 508.797,206.687 511.5,233.5C 511.5,248.167 511.5,262.833 511.5,277.5C 499.018,377.805 447.018,449.305 355.5,492C 330.313,502.297 304.313,508.797 277.5,511.5C 262.833,511.5 248.167,511.5 233.5,511.5C 133.195,499.018 61.6947,447.018 19,355.5C 8.70332,330.313 2.20332,304.313 -0.5,277.5C -0.5,262.833 -0.5,248.167 -0.5,233.5C 11.9821,133.195 63.9821,61.6947 155.5,19C 180.687,8.70332 206.687,2.20332 233.5,-0.5 Z"/></g>
<g><path style="opacity:1" fill="#fefefe" d="M 239.5,84.5 C 272.699,80.5899 303.366,87.4232 331.5,105C 363.089,128.762 374.256,159.928 365,198.5C 358.98,213.854 349.814,227.021 337.5,238C 321.032,252.8 304.865,267.967 289,283.5C 282.109,294.501 277.776,306.501 276,319.5C 272.061,332.6 263.227,338.933 249.5,338.5C 230.562,336.202 221.562,325.368 222.5,306C 222.44,285.174 229.273,267.007 243,251.5C 260.365,234.467 278.031,217.801 296,201.5C 312.721,177.627 309.554,156.794 286.5,139C 270.103,130.614 253.103,129.281 235.5,135C 231.673,136.746 228.007,138.746 224.5,141C 217.986,147.195 212.819,154.362 209,162.5C 204.528,173.582 199.862,184.582 195,195.5C 183.529,207.527 170.363,209.694 155.5,202C 147.066,195.963 142.732,187.796 142.5,177.5C 145.746,145.17 161.079,120.336 188.5,103C 204.346,93.3321 221.346,87.1654 239.5,84.5 Z"/></g>
<g><path style="opacity:1" fill="#fdfefe" d="M 245.5,359.5 C 275.453,359.28 288.619,373.946 285,403.5C 279.531,418.952 268.531,426.619 252,426.5C 227.107,424.256 216.107,410.589 219,385.5C 223.096,371.904 231.929,363.237 245.5,359.5 Z"/></g>
</svg>
