<?xml version="1.0" encoding="UTF-8"?>
<!DOCTYPE svg PUBLIC "-//W3C//DTD SVG 1.1//EN" "http://www.w3.org/Graphics/SVG/1.1/DTD/svg11.dtd">
<svg xmlns="http://www.w3.org/2000/svg" version="1.1" width="512px" height="512px" style="shape-rendering:geometricPrecision; text-rendering:geometricPrecision; image-rendering:optimizeQuality; fill-rule:evenodd; clip-rule:evenodd" xmlns:xlink="http://www.w3.org/1999/xlink">
<g><path style="opacity:0.99" fill="#000000" d="M 232.5,31.5 C 280.141,27.4101 317.641,44.7434 345,83.5C 364.909,117.684 367.909,153.351 354,190.5C 332.559,234.983 297.059,257.983 247.5,259.5C 195.726,257.542 159.559,232.875 139,185.5C 123.433,135.261 134.933,92.4281 173.5,57C 191.072,43.5446 210.739,35.0446 232.5,31.5 Z"/></g>
<g><path style="opacity:0.986" fill="#000000" d="M 138.5,243.5 C 153.74,258.213 171.074,270.047 190.5,279C 253.056,301.724 308.056,289.89 355.5,243.5C 393.07,262.624 413.07,293.291 415.5,335.5C 406.207,335.823 397.54,338.323 389.5,343C 370.988,360.846 352.488,378.679 334,396.5C 327.178,390.346 320.345,384.18 313.5,378C 290.601,365.915 270.101,369.081 252,387.5C 238.382,406.952 238.049,426.619 251,446.5C 260.348,455.681 269.514,465.014 278.5,474.5C 252.167,474.833 225.833,475.167 199.5,475.5C 171.461,475.646 143.461,475.146 115.5,474C 97.5604,468.394 86.0604,456.561 81,438.5C 79.3869,402.527 79.0536,366.527 80,330.5C 81.5744,303.188 92.4078,280.354 112.5,262C 121.058,255.566 129.724,249.399 138.5,243.5 Z"/></g>
<g><path style="opacity:0.957" fill="#000000" d="M 410.5,366.5 C 427.893,366.637 434.06,374.97 429,391.5C 400.833,421 372,449.833 342.5,478C 336.833,480 331.167,480 325.5,478C 307.638,460.472 290.138,442.638 273,424.5C 269.888,408.614 276.388,401.114 292.5,402C 294.246,402.471 295.913,403.138 297.5,404C 309.667,416.167 321.833,428.333 334,440.5C 357.833,416.667 381.667,392.833 405.5,369C 407.315,368.243 408.981,367.41 410.5,366.5 Z"/></g>
</svg>
