<?xml version="1.0" encoding="UTF-8"?>
<!DOCTYPE svg PUBLIC "-//W3C//DTD SVG 1.1//EN" "http://www.w3.org/Graphics/SVG/1.1/DTD/svg11.dtd">
<svg xmlns="http://www.w3.org/2000/svg" version="1.1" width="512px" height="512px" style="shape-rendering:geometricPrecision; text-rendering:geometricPrecision; image-rendering:optimizeQuality; fill-rule:evenodd; clip-rule:evenodd" xmlns:xlink="http://www.w3.org/1999/xlink">
<g><path style="opacity:0.991" fill="#FFFFFF" d="M 511.5,69.5 C 511.5,203.5 511.5,337.5 511.5,471.5C 509.685,475.479 506.685,478.312 502.5,480C 367.833,480.667 233.167,480.667 98.5,480C 94.3333,478.5 91.5,475.667 90,471.5C 89.5001,454.503 89.3334,437.503 89.5,420.5C 62.4979,420.667 35.4979,420.5 8.5,420C 4.31481,418.312 1.31481,415.479 -0.5,411.5C -0.5,407.5 -0.5,403.5 -0.5,399.5C 29.6381,370.618 51.8048,336.285 66,296.5C 78.1932,262.868 85.5265,228.201 88,192.5C 88.8262,150.758 89.8262,109.092 91,67.5C 92.7648,64.527 95.2648,62.3604 98.5,61C 125.831,60.5 153.165,60.3334 180.5,60.5C 180.334,53.4921 180.5,46.4921 181,39.5C 186.152,30.5253 193.652,28.0253 203.5,32C 206,33.1667 207.833,35 209,37.5C 210.432,45.0542 210.932,52.7208 210.5,60.5C 235.5,60.5 260.5,60.5 285.5,60.5C 285.334,53.4921 285.5,46.4921 286,39.5C 291.152,30.5253 298.652,28.0253 308.5,32C 311,33.1667 312.833,35 314,37.5C 315.432,45.0542 315.932,52.7208 315.5,60.5C 340.833,60.5 366.167,60.5 391.5,60.5C 391.334,53.4921 391.5,46.4921 392,39.5C 397.152,30.5253 404.652,28.0253 414.5,32C 417,33.1667 418.833,35 420,37.5C 421.432,45.0542 421.932,52.7208 421.5,60.5C 448.502,60.3334 475.502,60.5 502.5,61C 506.685,62.6878 509.685,65.5212 511.5,69.5 Z M 119.5,90.5 C 139.833,90.5 160.167,90.5 180.5,90.5C 180.334,97.5079 180.5,104.508 181,111.5C 186.152,120.475 193.652,122.975 203.5,119C 206,117.833 207.833,116 209,113.5C 210.432,105.946 210.932,98.2792 210.5,90.5C 235.5,90.5 260.5,90.5 285.5,90.5C 285.334,97.5079 285.5,104.508 286,111.5C 291.152,120.475 298.652,122.975 308.5,119C 311,117.833 312.833,116 314,113.5C 315.432,105.946 315.932,98.2792 315.5,90.5C 340.833,90.5 366.167,90.5 391.5,90.5C 391.334,97.5079 391.5,104.508 392,111.5C 397.152,120.475 404.652,122.975 414.5,119C 417,117.833 418.833,116 420,113.5C 421.432,105.946 421.932,98.2792 421.5,90.5C 441.5,90.5 461.5,90.5 481.5,90.5C 481.5,110.5 481.5,130.5 481.5,150.5C 360.833,150.5 240.167,150.5 119.5,150.5C 119.5,130.5 119.5,110.5 119.5,90.5 Z M 119.5,180.5 C 239.833,180.5 360.167,180.5 480.5,180.5C 478.962,250.947 457.795,314.614 417,371.5C 411.5,377.667 406,383.833 400.5,390C 283.5,390.667 166.5,390.667 49.5,390C 82.2655,346.428 103.432,297.595 113,243.5C 116.815,222.665 118.982,201.665 119.5,180.5 Z M 480.5,323.5 C 481.499,365.663 481.832,407.997 481.5,450.5C 360.833,450.5 240.167,450.5 119.5,450.5C 119.5,440.5 119.5,430.5 119.5,420.5C 217.167,420.667 314.834,420.5 412.5,420C 426.083,409.752 437.583,397.585 447,383.5C 460.486,364.867 471.653,344.867 480.5,323.5 Z"/></g>
</svg>
