<?xml version="1.0" encoding="UTF-8"?>
<!DOCTYPE svg PUBLIC "-//W3C//DTD SVG 1.1//EN" "http://www.w3.org/Graphics/SVG/1.1/DTD/svg11.dtd">
<svg xmlns="http://www.w3.org/2000/svg" version="1.1" width="512px" height="512px" style="shape-rendering:geometricPrecision; text-rendering:geometricPrecision; image-rendering:optimizeQuality; fill-rule:evenodd; clip-rule:evenodd" xmlns:xlink="http://www.w3.org/1999/xlink">
<g><path style="opacity:0.998" fill="#2196f3" d="M 232.5,-0.5 C 247.833,-0.5 263.167,-0.5 278.5,-0.5C 378.271,12.4486 449.438,64.4486 492,155.5C 502.136,180.379 508.636,206.046 511.5,232.5C 511.5,247.833 511.5,263.167 511.5,278.5C 498.551,378.271 446.551,449.438 355.5,492C 330.622,502.136 304.955,508.636 278.5,511.5C 263.167,511.5 247.833,511.5 232.5,511.5C 132.727,498.549 61.5605,446.549 19,355.5C 8.86392,330.621 2.36392,304.954 -0.5,278.5C -0.5,263.167 -0.5,247.833 -0.5,232.5C 12.4486,132.729 64.4486,61.5622 155.5,19C 180.379,8.86392 206.046,2.36392 232.5,-0.5 Z"/></g>
<g><path style="opacity:1" fill="#f9f9f9" d="M 365.5,164.5 C 383.331,164.164 391.831,172.83 391,190.5C 390.241,193.785 388.908,196.785 387,199.5C 339.5,247 292,294.5 244.5,342C 235.803,347.913 227.136,347.913 218.5,342C 194,317.5 169.5,293 145,268.5C 137.235,253.795 140.735,242.628 155.5,235C 162.215,233.752 168.548,234.752 174.5,238C 193.347,257.014 212.347,275.847 231.5,294.5C 273.653,252.847 315.653,211.014 357.5,169C 360.099,167.205 362.766,165.705 365.5,164.5 Z"/></g>
</svg>
