<?xml version="1.0" encoding="UTF-8"?>
<!DOCTYPE svg PUBLIC "-//W3C//DTD SVG 1.1//EN" "http://www.w3.org/Graphics/SVG/1.1/DTD/svg11.dtd">
<svg xmlns="http://www.w3.org/2000/svg" version="1.1" width="512px" height="512px" style="shape-rendering:geometricPrecision; text-rendering:geometricPrecision; image-rendering:optimizeQuality; fill-rule:evenodd; clip-rule:evenodd" xmlns:xlink="http://www.w3.org/1999/xlink">
<g><path style="opacity:0.997" fill="#2196f3" d="M 357.5,399.5 C 356.667,313.334 356.167,227.001 356,140.5C 351.494,124.325 340.994,114.825 324.5,112C 267.501,111.5 210.501,111.333 153.5,111.5C 153.333,100.828 153.5,90.1615 154,79.5C 156.859,62.9748 166.359,52.4748 182.5,48C 259.5,47.3333 336.5,47.3333 413.5,48C 428.767,52.2673 438.267,62.1007 442,77.5C 442.667,174.833 442.667,272.167 442,369.5C 438.868,383.3 430.702,392.8 417.5,398C 397.554,399.452 377.554,399.952 357.5,399.5 Z"/></g>
<g><path style="opacity:0.999" fill="#8fcaf9" d="M 153.5,111.5 C 210.501,111.333 267.501,111.5 324.5,112C 340.994,114.825 351.494,124.325 356,140.5C 356.167,227.001 356.667,313.334 357.5,399.5C 357.667,410.172 357.5,420.839 357,431.5C 354.169,447.999 344.669,458.499 328.5,463C 251.5,463.667 174.5,463.667 97.5,463C 82.2326,458.733 72.7326,448.899 69,433.5C 68.3333,336.167 68.3333,238.833 69,141.5C 72.1598,127.675 80.3265,118.175 93.5,113C 113.446,111.548 133.446,111.048 153.5,111.5 Z"/></g>
</svg>
