<?xml version="1.0" encoding="UTF-8"?>
<!DOCTYPE svg PUBLIC "-//W3C//DTD SVG 1.1//EN" "http://www.w3.org/Graphics/SVG/1.1/DTD/svg11.dtd">
<svg xmlns="http://www.w3.org/2000/svg" version="1.1" width="512px" height="512px" style="shape-rendering:geometricPrecision; text-rendering:geometricPrecision; image-rendering:optimizeQuality; fill-rule:evenodd; clip-rule:evenodd" xmlns:xlink="http://www.w3.org/1999/xlink">
<g><path style="opacity:0.965" fill="#020100" d="M 274.5,-0.5 C 278.5,-0.5 282.5,-0.5 286.5,-0.5C 300.803,4.64095 306.303,14.641 303,29.5C 295.839,40.1565 291.173,51.8232 289,64.5C 287.296,81.0452 291.462,95.8785 301.5,109C 303.608,109.36 305.608,110.027 307.5,111C 313.902,118.073 320.902,124.406 328.5,130C 336.412,133.66 344.746,135.493 353.5,135.5C 354.181,131.803 354.681,128.136 355,124.5C 344.104,117.37 337.77,107.37 336,94.5C 335.019,68.7461 335.352,43.0795 337,17.5C 339.132,14.6842 341.965,13.3509 345.5,13.5C 407.164,18.8107 428.997,51.1441 411,110.5C 408.047,115.786 404.047,120.12 399,123.5C 399.356,127.589 400.356,131.589 402,135.5C 408.088,134.117 414.255,132.95 420.5,132C 422.949,131.275 425.283,130.275 427.5,129C 435.098,123.406 442.098,117.073 448.5,110C 450.392,109.027 452.392,108.36 454.5,108C 467.501,89.5792 470.001,69.7459 462,48.5C 459.779,42.3898 456.779,36.7231 453,31.5C 448.255,15.991 453.422,5.32433 468.5,-0.5C 472.5,-0.5 476.5,-0.5 480.5,-0.5C 483.991,0.837327 487.157,2.83733 490,5.5C 500.793,21.4078 507.959,38.7411 511.5,57.5C 511.5,67.1667 511.5,76.8333 511.5,86.5C 508.099,107.205 499.599,125.538 486,141.5C 485.667,142.833 485.333,144.167 485,145.5C 472.457,156.378 459.624,166.878 446.5,177C 440.756,182.654 437.256,189.487 436,197.5C 435.667,214.167 435.333,230.833 435,247.5C 433.322,249.666 431.155,250.999 428.5,251.5C 426.611,250.678 424.611,249.845 422.5,249C 421.874,248.25 421.374,247.416 421,246.5C 420.333,228.5 420.333,210.5 421,192.5C 422.709,184.416 426.042,177.083 431,170.5C 442.781,160.371 454.614,150.371 466.5,140.5C 461.848,136.349 457.348,132.015 453,127.5C 443.641,138.76 431.808,145.76 417.5,148.5C 409.579,147.324 404.079,150.324 401,157.5C 389.788,170.261 376.621,172.761 361.5,165C 356.751,160.922 352.751,156.255 349.5,151C 335.622,150.887 323.289,146.553 312.5,138C 309.318,134.651 305.985,131.484 302.5,128.5C 298.182,132.318 294.015,136.318 290,140.5C 289.837,142.387 290.671,143.887 292.5,145C 302.758,153.047 312.925,161.213 323,169.5C 329.114,176.394 333.114,184.394 335,193.5C 335.5,219.498 335.667,245.498 335.5,271.5C 366.671,271.831 397.671,271.498 428.5,270.5C 431.449,271.614 433.615,273.614 435,276.5C 437.209,288.25 438.709,300.083 439.5,312C 439.361,320.641 438.194,329.141 436,337.5C 431.726,349.99 428.059,362.657 425,375.5C 422.103,393.446 421.769,411.446 424,429.5C 427,442.833 430,456.167 433,469.5C 434.483,478.787 434.816,488.121 434,497.5C 432.074,504.255 427.907,508.922 421.5,511.5C 406.167,511.5 390.833,511.5 375.5,511.5C 364.788,505.531 361.955,496.865 367,485.5C 371.893,480.103 377.727,476.103 384.5,473.5C 378.032,453.596 371.866,433.596 366,413.5C 362.523,396.302 361.19,378.969 362,361.5C 353.394,381.26 348.894,401.927 348.5,423.5C 349.87,441.591 352.037,459.591 355,477.5C 355.667,483.5 355.667,489.5 355,495.5C 353.151,503.174 348.651,508.508 341.5,511.5C 326.5,511.5 311.5,511.5 296.5,511.5C 286.799,506.971 283.299,499.304 286,488.5C 290.378,480.966 296.878,476.299 305.5,474.5C 302.195,456.477 298.695,438.477 295,420.5C 291.823,395.822 293.489,371.489 300,347.5C 306.489,325.211 312.822,302.878 319,280.5C 319.667,251.833 319.667,223.167 319,194.5C 317.592,188.514 314.758,183.348 310.5,179C 297.355,168.69 284.355,158.19 271.5,147.5C 264.509,136.862 258.009,125.862 252,114.5C 237.635,77.3233 241.302,41.99 263,8.5C 266.183,4.46219 270.016,1.46219 274.5,-0.5 Z"/></g>
<g><path style="opacity:0.913" fill="#000000" d="M 207.5,3.5 C 216.32,2.79419 219.82,6.79419 218,15.5C 201.204,25.2241 196.37,39.0574 203.5,57C 201.992,63.425 197.992,65.7583 191.5,64C 187.929,61.0316 185.762,57.1982 185,52.5C 181.703,31.0999 189.203,14.7666 207.5,3.5 Z"/></g>
<g><path style="opacity:0.936" fill="#000000" d="M 82.5,11.5 C 86.4326,11.4113 89.2659,13.078 91,16.5C 91.6667,35.1667 91.6667,53.8333 91,72.5C 88.2768,84.4582 80.7768,89.2915 68.5,87C 57.6914,81.2412 54.8581,72.7412 60,61.5C 63.8894,56.3047 69.0561,53.9714 75.5,54.5C 75.8308,46.8045 75.4975,39.1378 74.5,31.5C 65.9456,34.4066 57.4456,37.4066 49,40.5C 48.6667,56.1667 48.3333,71.8333 48,87.5C 44.6437,101.265 36.1437,105.765 22.5,101C 14.1142,94.3475 12.2809,86.1809 17,76.5C 20.8907,71.3687 26.0574,69.0354 32.5,69.5C 32.0556,56.0929 32.5556,42.7596 34,29.5C 34.9025,28.2986 36.0692,27.4652 37.5,27C 52.721,22.0943 67.721,16.9276 82.5,11.5 Z"/></g>
<g><path style="opacity:1" fill="#f8e2d3" d="M 278.5,14.5 C 284.013,13.9102 287.347,16.2435 288.5,21.5C 283.202,31.77 278.702,42.4366 275,53.5C 269.724,77.7484 274.557,99.7484 289.5,119.5C 286.5,123.167 283.167,126.5 279.5,129.5C 251.847,91.4014 251.514,53.068 278.5,14.5 Z"/></g>
<g><path style="opacity:1" fill="#f9e3d4" d="M 471.5,14.5 C 475.273,13.8224 478.106,15.1558 480,18.5C 502.943,56.0469 501.776,92.7136 476.5,128.5C 472.994,125.494 469.661,122.327 466.5,119C 487.637,87.7011 487.803,56.2011 467,24.5C 465.571,19.7833 467.071,16.45 471.5,14.5 Z"/></g>
<g><path style="opacity:0.9" fill="#000000" d="M 225.5,20.5 C 233.832,21.3207 236.665,25.6541 234,33.5C 225.951,37.8136 223.784,44.147 227.5,52.5C 226.451,57.0487 223.618,59.7154 219,60.5C 213.109,59.2696 210.109,55.603 210,49.5C 208.393,36.0397 213.56,26.373 225.5,20.5 Z"/></g>
<g><path style="opacity:1" fill="#984d1c" d="M 351.5,30.5 C 369.141,30.5739 383.641,37.2405 395,50.5C 397.977,55.113 399.81,60.113 400.5,65.5C 384.167,65.5 367.833,65.5 351.5,65.5C 351.5,53.8333 351.5,42.1667 351.5,30.5 Z"/></g>
<g><path style="opacity:0.968" fill="#010101" d="M 224.5,511.5 C 209.5,511.5 194.5,511.5 179.5,511.5C 173.936,509.105 169.769,505.105 167,499.5C 165.443,492.247 165.11,484.914 166,477.5C 173.667,457.833 181.333,438.167 189,418.5C 192.82,408.827 192.153,399.494 187,390.5C 183,385.833 179,381.167 175,376.5C 177.33,387.191 176.996,397.857 174,408.5C 162.548,430.573 150.715,452.406 138.5,474C 144.291,476.98 149.457,480.813 154,485.5C 158.811,497.243 155.645,505.91 144.5,511.5C 129.833,511.5 115.167,511.5 100.5,511.5C 93.9424,509.445 89.4424,505.112 87,498.5C 86.3333,491.167 86.3333,483.833 87,476.5C 96.1397,456.082 105.473,435.749 115,415.5C 118.853,405.986 117.853,396.986 112,388.5C 105.706,380.538 99.0398,372.871 92,365.5C 82.1547,348.576 79.8214,330.576 85,311.5C 85.6667,287.167 85.6667,262.833 85,238.5C 81.1667,241 77.3333,243.5 73.5,246C 69.7559,246.929 66.2559,246.429 63,244.5C 44.2935,264.344 39.2935,287.344 48,313.5C 49.0908,329.755 41.4242,338.755 25,340.5C 16.688,340.176 10.3547,336.509 6,329.5C 3.33329,321.162 1.16662,312.828 -0.5,304.5C -0.5,294.167 -0.5,283.833 -0.5,273.5C 1.14665,266.586 2.97999,259.586 5,252.5C 7.23932,249.038 10.406,247.705 14.5,248.5C 17.5518,250.056 19.2185,252.556 19.5,256C 13.8288,274.594 12.9954,293.427 17,312.5C 18.1275,316.54 19.6275,320.373 21.5,324C 25.6664,326.251 29.1664,325.417 32,321.5C 30.5296,310.253 29.363,298.92 28.5,287.5C 29.2824,264.437 38.2824,245.27 55.5,230C 53.5433,225.917 51.21,222.083 48.5,218.5C 43.021,222.145 38.3544,226.645 34.5,232C 30.9255,233.742 27.2588,233.908 23.5,232.5C 20.6858,228.04 20.8525,223.706 24,219.5C 29.0318,214.133 34.3651,209.133 40,204.5C 40.2414,201.711 40.908,199.044 42,196.5C 55.7773,185.691 70.6106,176.525 86.5,169C 97.0644,164.754 107.898,163.587 119,165.5C 120.013,161.78 121.18,158.114 122.5,154.5C 113.285,147.768 107.452,138.768 105,127.5C 104.333,115.833 104.333,104.167 105,92.5C 110.581,72.4154 123.747,61.7487 144.5,60.5C 165.265,61.763 178.431,72.4296 184,92.5C 186.262,105.911 185.929,119.245 183,132.5C 179.978,141.858 174.311,149.191 166,154.5C 165.672,157.207 166.005,159.874 167,162.5C 177.16,164.442 187.327,166.942 197.5,170C 223.455,183.061 235.622,204.227 234,233.5C 233.045,235.949 231.545,237.949 229.5,239.5C 230.855,262.054 240.855,279.554 259.5,292C 265.923,295.143 272.256,298.476 278.5,302C 285.088,308.145 287.255,315.645 285,324.5C 278.915,340.975 267.748,345.809 251.5,339C 230.629,329.645 213.796,315.479 201,296.5C 200.333,299.833 200.333,303.167 201,306.5C 216.063,329.902 230.73,353.568 245,377.5C 248.333,387.833 248.333,398.167 245,408.5C 235.885,430.516 226.385,452.349 216.5,474C 224.841,476.683 231.008,481.849 235,489.5C 237.098,499.634 233.598,506.967 224.5,511.5 Z"/></g>
<g><path style="opacity:1" fill="#1b3176" d="M 139.5,75.5 C 149.34,74.8333 157.507,78.1666 164,85.5C 164.667,86.1667 164.667,86.8333 164,87.5C 151.435,98.8572 136.602,104.191 119.5,103.5C 119.806,89.5351 126.472,80.2017 139.5,75.5 Z"/></g>
<g><path style="opacity:1" fill="#fbe5d6" d="M 351.5,80.5 C 368.167,80.5 384.833,80.5 401.5,80.5C 403.519,96.6484 397.186,107.815 382.5,114C 367.71,116.208 357.544,110.375 352,96.5C 351.501,91.1771 351.334,85.8437 351.5,80.5 Z"/></g>
<g><path style="opacity:1" fill="#fbe4d5" d="M 120.5,124.5 C 120.5,122.5 120.5,120.5 120.5,118.5C 125.032,118.818 129.366,118.485 133.5,117.5C 146.712,116.264 158.545,111.597 169,103.5C 169.667,110.833 169.667,118.167 169,125.5C 163.047,141.227 151.88,147.061 135.5,143C 127.3,139.434 122.3,133.268 120.5,124.5 Z"/></g>
<g><path style="opacity:1" fill="#736861" d="M 133.5,117.5 C 129.366,118.485 125.032,118.818 120.5,118.5C 120.5,120.5 120.5,122.5 120.5,124.5C 119.532,122.393 119.198,120.059 119.5,117.5C 124.167,117.5 128.833,117.5 133.5,117.5 Z"/></g>
<g><path style="opacity:1" fill="#fdca00" d="M 428.5,251.5 C 428.5,257.833 428.5,264.167 428.5,270.5C 414.833,270.5 401.167,270.5 387.5,270.5C 387.333,242.165 387.5,213.831 388,185.5C 389.167,179.326 391.501,173.66 395,168.5C 402.29,161.464 409.79,154.797 417.5,148.5C 431.808,145.76 443.641,138.76 453,127.5C 457.348,132.015 461.848,136.349 466.5,140.5C 454.614,150.371 442.781,160.371 431,170.5C 426.042,177.083 422.709,184.416 421,192.5C 420.333,210.5 420.333,228.5 421,246.5C 421.374,247.416 421.874,248.25 422.5,249C 424.611,249.845 426.611,250.678 428.5,251.5 Z"/></g>
<g><path style="opacity:1" fill="#fcd539" d="M 417.5,148.5 C 409.79,154.797 402.29,161.464 395,168.5C 391.501,173.66 389.167,179.326 388,185.5C 387.5,213.831 387.333,242.165 387.5,270.5C 401.167,270.5 414.833,270.5 428.5,270.5C 397.671,271.498 366.671,271.831 335.5,271.5C 335.667,245.498 335.5,219.498 335,193.5C 333.114,184.394 329.114,176.394 323,169.5C 312.925,161.213 302.758,153.047 292.5,145C 290.671,143.887 289.837,142.387 290,140.5C 294.015,136.318 298.182,132.318 302.5,128.5C 305.985,131.484 309.318,134.651 312.5,138C 323.289,146.553 335.622,150.887 349.5,151C 352.751,156.255 356.751,160.922 361.5,165C 376.621,172.761 389.788,170.261 401,157.5C 404.079,150.324 409.579,147.324 417.5,148.5 Z"/></g>
<g><path style="opacity:1" fill="#f8e1d3" d="M 370.5,129.5 C 375.167,129.5 379.833,129.5 384.5,129.5C 385.348,134.226 386.515,138.892 388,143.5C 388.602,151.087 384.935,154.754 377,154.5C 369.718,154.225 366.384,150.558 367,143.5C 367.982,138.748 369.149,134.081 370.5,129.5 Z"/></g>
<g><path style="opacity:1" fill="#f7e0d2" d="M 136.5,159.5 C 141.214,159.173 145.88,159.507 150.5,160.5C 152.224,165.898 153.558,171.398 154.5,177C 152.533,182.083 148.699,184.583 143,184.5C 138.607,184.371 134.94,182.705 132,179.5C 133.167,172.841 134.667,166.174 136.5,159.5 Z"/></g>
<g><path style="opacity:1" fill="#39ece4" d="M 100.5,179.5 C 105.179,179.334 109.845,179.501 114.5,180C 118.145,185.641 122.478,190.641 127.5,195C 143.612,202.963 157.112,199.796 168,185.5C 169.009,183.975 169.509,182.308 169.5,180.5C 191.461,179.226 206.961,188.56 216,208.5C 218.033,213.295 218.866,218.295 218.5,223.5C 212.5,223.5 206.5,223.5 200.5,223.5C 200.665,219.818 200.499,216.152 200,212.5C 195.748,206.347 191.081,206.014 186,211.5C 185.5,241.498 185.333,271.498 185.5,301.5C 157.167,301.5 128.833,301.5 100.5,301.5C 100.667,270.498 100.5,239.498 100,208.5C 99.5,206.667 98.3333,205.5 96.5,205C 93.366,204.21 90.366,204.543 87.5,206C 85.9787,210.654 84.9787,215.487 84.5,220.5C 80.1993,222.969 76.0326,225.636 72,228.5C 67.3667,220.732 62.8667,212.899 58.5,205C 70.4528,193.188 84.4528,184.688 100.5,179.5 Z"/></g>
<g><path style="opacity:0.998" fill="#fae3d5" d="M 14.5,248.5 C 17.4704,243.234 20.4704,237.9 23.5,232.5C 27.2588,233.908 30.9255,233.742 34.5,232C 38.3544,226.645 43.021,222.145 48.5,218.5C 51.21,222.083 53.5433,225.917 55.5,230C 38.2824,245.27 29.2824,264.437 28.5,287.5C 29.363,298.92 30.5296,310.253 32,321.5C 29.1664,325.417 25.6664,326.251 21.5,324C 19.6275,320.373 18.1275,316.54 17,312.5C 12.9954,293.427 13.8288,274.594 19.5,256C 19.2185,252.556 17.5518,250.056 14.5,248.5 Z"/></g>
<g><path style="opacity:1" fill="#f9e2d3" d="M 200.5,238.5 C 205.167,238.5 209.833,238.5 214.5,238.5C 214.787,262.905 224.12,283.071 242.5,299C 250.758,305.05 259.592,310.216 269,314.5C 272.219,321.013 270.386,325.013 263.5,326.5C 223.376,310.936 202.376,281.603 200.5,238.5 Z"/></g>
<g><path style="opacity:0.908" fill="#000000" d="M 479.5,276.5 C 484.102,276.384 487.935,278.051 491,281.5C 503.422,296.676 505.755,313.343 498,331.5C 495.241,339.298 490.075,341.798 482.5,339C 480.556,337.278 479.556,335.111 479.5,332.5C 481.032,328.432 482.865,324.432 485,320.5C 488.498,308.483 485.498,298.483 476,290.5C 472.548,284.689 473.714,280.022 479.5,276.5 Z"/></g>
<g><path style="opacity:1" fill="#994e1c" d="M 388.5,286.5 C 391.094,298.709 391.927,311.043 391,323.5C 387.815,337.722 383.815,351.722 379,365.5C 378.502,362.183 378.335,358.85 378.5,355.5C 378.688,346.815 378.855,338.149 379,329.5C 373.729,321.24 367.729,320.573 361,327.5C 349.712,347.7 341.379,369.033 336,391.5C 333.691,406.756 333.025,422.09 334,437.5C 335.549,449.505 337.049,461.505 338.5,473.5C 332.833,473.5 327.167,473.5 321.5,473.5C 317.477,454.216 313.643,434.883 310,415.5C 306.888,392.393 308.888,369.727 316,347.5C 321.869,327.558 327.536,307.558 333,287.5C 351.424,286.507 369.924,286.174 388.5,286.5 Z"/></g>
<g><path style="opacity:1" fill="#8d481a" d="M 388.5,286.5 C 399.5,286.5 410.5,286.5 421.5,286.5C 422.686,295.138 423.686,303.804 424.5,312.5C 424.247,317.524 423.747,322.524 423,327.5C 417.524,343.262 412.857,359.262 409,375.5C 405.72,394.494 405.72,413.494 409,432.5C 411.406,446.277 414.24,459.943 417.5,473.5C 411.369,474.092 405.536,473.425 400,471.5C 393.465,450.894 387.131,430.227 381,409.5C 377.592,391.46 376.759,373.46 378.5,355.5C 378.335,358.85 378.502,362.183 379,365.5C 383.815,351.722 387.815,337.722 391,323.5C 391.927,311.043 391.094,298.709 388.5,286.5 Z"/></g>
<g><path style="opacity:0.909" fill="#000000" d="M 458.5,291.5 C 461.187,291.336 463.854,291.503 466.5,292C 476.766,301.359 479.266,312.526 474,325.5C 471.549,331.089 467.383,332.922 461.5,331C 457.788,328.487 456.622,324.987 458,320.5C 459.552,318.232 460.385,315.732 460.5,313C 458.5,308.333 456.5,303.667 454.5,299C 454.777,295.902 456.11,293.402 458.5,291.5 Z"/></g>
<g><path style="opacity:1" fill="#2e4ba1" d="M 200.5,472.5 C 195.305,472.821 190.305,472.487 185.5,471.5C 191.695,454.086 198.195,436.753 205,419.5C 209.968,404.039 207.301,390.039 197,377.5C 186.15,366.284 175.65,354.784 165.5,343C 160.573,340.702 155.906,341.036 151.5,344C 150.106,345.739 149.439,347.739 149.5,350C 153.128,361.885 156.962,373.718 161,385.5C 162.232,392.839 161.232,399.839 158,406.5C 145.567,428.366 133.401,450.366 121.5,472.5C 116.305,472.821 111.305,472.487 106.5,471.5C 114.045,454.074 121.878,436.741 130,419.5C 134.358,406.51 133.024,394.176 126,382.5C 120.422,374.251 114.088,366.584 107,359.5C 97.8168,346.404 95.3168,332.071 99.5,316.5C 129.507,316.167 159.507,316.5 189.5,317.5C 202.469,338.301 215.636,358.967 229,379.5C 233.667,388.5 233.667,397.5 229,406.5C 219.396,428.488 209.896,450.488 200.5,472.5 Z"/></g>
<g><path style="opacity:0.902" fill="#000000" d="M 55.5,357.5 C 58.6492,357.211 61.6492,357.711 64.5,359C 65.7861,364.203 67.2861,369.37 69,374.5C 72.2001,376.765 75.5334,378.765 79,380.5C 82.0121,390.154 78.5121,394.32 68.5,393C 53.8513,386.87 48.3513,376.037 52,360.5C 53.1451,359.364 54.3117,358.364 55.5,357.5 Z"/></g>
<g><path style="opacity:0.915" fill="#000000" d="M 33.5,359.5 C 36.9391,359.589 39.7724,360.922 42,363.5C 39.8179,383.009 47.9846,395.509 66.5,401C 70.6177,405.88 70.2843,410.547 65.5,415C 51.3912,414.693 40.5578,408.526 33,396.5C 26.9273,386.142 25.2607,375.142 28,363.5C 29.4998,361.531 31.3331,360.198 33.5,359.5 Z"/></g>
<g><path style="opacity:0.939" fill="#000000" d="M 467.5,388.5 C 470.187,388.336 472.854,388.503 475.5,389C 484.667,398.167 493.833,407.333 503,416.5C 506.215,425.58 503.048,429.747 493.5,429C 488.366,424.867 483.532,420.367 479,415.5C 478.943,428.569 478.277,441.569 477,454.5C 472.488,462.568 465.655,465.401 456.5,463C 445.91,457.564 443.076,449.397 448,438.5C 451.338,433.498 456.005,430.831 462,430.5C 462.733,417.837 463.4,405.17 464,392.5C 464.69,390.65 465.856,389.316 467.5,388.5 Z"/></g>
<g><path style="opacity:1" fill="#142148" d="M 106.5,471.5 C 111.305,472.487 116.305,472.821 121.5,472.5C 116.32,473.815 110.986,473.815 105.5,472.5C 105.624,471.893 105.957,471.56 106.5,471.5 Z"/></g>
<g><path style="opacity:1" fill="#16234c" d="M 185.5,471.5 C 190.305,472.487 195.305,472.821 200.5,472.5C 195.32,473.815 189.986,473.815 184.5,472.5C 184.624,471.893 184.957,471.56 185.5,471.5 Z"/></g>
<g><path style="opacity:1" fill="#1e7e7a" d="M 207.5,488.5 C 198.833,488.5 190.167,488.5 181.5,488.5C 181.5,489.833 181.5,491.167 181.5,492.5C 180.549,491.081 180.216,489.415 180.5,487.5C 189.682,487.173 198.682,487.507 207.5,488.5 Z"/></g>
<g><path style="opacity:1" fill="#35dad2" d="M 101.5,487.5 C 110.839,487.334 120.173,487.5 129.5,488C 132.583,489.139 135.583,490.472 138.5,492C 140.037,493.11 140.703,494.61 140.5,496.5C 128.162,496.667 115.829,496.5 103.5,496C 101.821,493.435 101.154,490.602 101.5,487.5 Z"/></g>
<g><path style="opacity:1" fill="#37e3db" d="M 207.5,488.5 C 213.127,488.479 217.46,490.813 220.5,495.5C 208.18,496.666 195.847,496.833 183.5,496C 182.177,495.184 181.511,494.017 181.5,492.5C 181.5,491.167 181.5,489.833 181.5,488.5C 190.167,488.5 198.833,488.5 207.5,488.5 Z"/></g>
<g><path style="opacity:1" fill="#2d4a9e" d="M 309.5,488.5 C 319.5,488.5 329.5,488.5 339.5,488.5C 339.945,491.365 339.278,493.865 337.5,496C 325.153,496.833 312.82,496.666 300.5,495.5C 302.685,491.966 305.685,489.633 309.5,488.5 Z"/></g>
<g><path style="opacity:1" fill="#2d499d" d="M 388.5,488.5 C 398.833,488.5 409.167,488.5 419.5,488.5C 420.039,491.695 419.039,494.195 416.5,496C 404.5,496.667 392.5,496.667 380.5,496C 379.939,494.434 380.606,493.101 382.5,492C 384.727,491.059 386.727,489.892 388.5,488.5 Z"/></g>
</svg>
