<?xml version="1.0" encoding="UTF-8"?>
<!DOCTYPE svg PUBLIC "-//W3C//DTD SVG 1.1//EN" "http://www.w3.org/Graphics/SVG/1.1/DTD/svg11.dtd">
<svg xmlns="http://www.w3.org/2000/svg" version="1.1" width="512px" height="512px" style="shape-rendering:geometricPrecision; text-rendering:geometricPrecision; image-rendering:optimizeQuality; fill-rule:evenodd; clip-rule:evenodd" xmlns:xlink="http://www.w3.org/1999/xlink">
<g><path style="opacity:0.992" fill="#060919" d="M 404.5,25.5 C 422.316,24.4205 437.982,29.5872 451.5,41C 460.069,48.8995 467.903,57.3995 475,66.5C 489.185,90.2492 488.518,113.583 473,136.5C 396.5,213 320,289.5 243.5,366C 238.058,369.704 232.058,372.037 225.5,373C 201.222,375.795 176.888,377.462 152.5,378C 138.824,373.66 132.158,364.326 132.5,350C 134.111,325.726 136.611,301.56 140,277.5C 141.139,273.888 142.806,270.554 145,267.5C 220.139,191.361 295.639,115.527 371.5,40C 381.347,32.4067 392.347,27.5733 404.5,25.5 Z"/></g>
<g><path style="opacity:1" fill="#e43845" d="M 403.5,58.5 C 411.681,57.5486 419.347,59.0486 426.5,63C 433.667,70.1667 440.833,77.3333 448,84.5C 453.904,94.7908 453.904,105.124 448,115.5C 440.667,122.833 433.333,130.167 426,137.5C 408.5,120 391,102.5 373.5,85C 380.833,77.6667 388.167,70.3333 395.5,63C 398.391,61.7258 401.058,60.2258 403.5,58.5 Z"/></g>
<g><path style="opacity:0.988" fill="#050818" d="M 95.5,68.5 C 141.835,68.3333 188.168,68.5 234.5,69C 242.304,71.4719 246.304,76.8053 246.5,85C 246.205,93.5808 241.871,98.9141 233.5,101C 188.5,101.333 143.5,101.667 98.5,102C 76.4712,107.363 63.3045,121.196 59,143.5C 58.3333,232.167 58.3333,320.833 59,409.5C 63.1667,433.667 77.3333,447.833 101.5,452C 190.167,452.667 278.833,452.667 367.5,452C 389.804,447.695 403.637,434.529 409,412.5C 409.333,367.5 409.667,322.5 410,277.5C 414.676,265.046 423.176,261.546 435.5,267C 438.869,269.365 441.036,272.532 442,276.5C 442.667,322.833 442.667,369.167 442,415.5C 437.068,446.42 420.234,467.92 391.5,480C 384.372,482.559 377.038,484.226 369.5,485C 279.5,485.667 189.5,485.667 99.5,485C 67.8815,481.448 45.3815,465.281 32,436.5C 28.7474,428.823 26.7474,420.823 26,412.5C 25.0198,319.477 25.3531,226.477 27,133.5C 36.2523,97.4673 59.0856,75.8006 95.5,68.5 Z"/></g>
<g><path style="opacity:1" fill="#fbbe48" d="M 350.5,107.5 C 368.299,124.798 385.965,142.298 403.5,160C 343.833,219.667 284.167,279.333 224.5,339C 204.969,342.051 185.303,344.217 165.5,345.5C 166.642,326.105 168.475,306.771 171,287.5C 231.035,227.632 290.868,167.632 350.5,107.5 Z"/></g>
</svg>
