<?xml version="1.0" encoding="UTF-8"?>
<!DOCTYPE svg PUBLIC "-//W3C//DTD SVG 1.1//EN" "http://www.w3.org/Graphics/SVG/1.1/DTD/svg11.dtd">
<svg xmlns="http://www.w3.org/2000/svg" version="1.1" width="512px" height="512px" style="shape-rendering:geometricPrecision; text-rendering:geometricPrecision; image-rendering:optimizeQuality; fill-rule:evenodd; clip-rule:evenodd" xmlns:xlink="http://www.w3.org/1999/xlink">
<g><path style="opacity:0.952" fill="#ffffff" d="M 66.5,-0.5 C 192.5,-0.5 318.5,-0.5 444.5,-0.5C 455.557,2.72872 462.39,10.062 465,21.5C 465.667,36.8333 465.667,52.1667 465,67.5C 460,74.1667 455,74.1667 450,67.5C 449.667,53.1667 449.333,38.8333 449,24.5C 447.482,18.643 443.648,15.4764 437.5,15C 409.502,14.5 381.502,14.3334 353.5,14.5C 351.616,36.5891 343.449,55.9225 329,72.5C 331.61,81.853 330.61,90.853 326,99.5C 317.564,111.072 306.398,114.906 292.5,111C 287.296,108.905 282.629,106.071 278.5,102.5C 263.167,106.5 247.833,106.5 232.5,102.5C 228.371,106.071 223.704,108.905 218.5,111C 204.602,114.906 193.436,111.072 185,99.5C 180.428,90.8436 179.428,81.8436 182,72.5C 167.551,55.9225 159.384,36.5891 157.5,14.5C 129.498,14.3334 101.498,14.5 73.5,15C 67.3518,15.4764 63.5184,18.643 62,24.5C 61.6667,142.5 61.3333,260.5 61,378.5C 58.4586,383.069 54.6253,384.569 49.5,383C 47.9512,381.786 46.7845,380.286 46,378.5C 45.3333,259.5 45.3333,140.5 46,21.5C 48.6096,10.062 55.443,2.72872 66.5,-0.5 Z M 173.5,14.5 C 228.167,14.5 282.833,14.5 337.5,14.5C 335.672,31.9986 329.005,47.332 317.5,60.5C 301.104,52.4383 287.604,55.7716 277,70.5C 274.618,75.9098 273.451,81.5765 273.5,87.5C 267.528,88.3297 261.528,88.9964 255.5,89.5C 249.472,88.9964 243.472,88.3297 237.5,87.5C 236.038,64.8703 224.038,54.7036 201.5,57C 198.716,57.8917 196.05,59.0584 193.5,60.5C 181.995,47.332 175.328,31.9986 173.5,14.5 Z M 204.5,72.5 C 214.035,71.0364 219.702,75.0364 221.5,84.5C 218.521,95.49 211.854,98.6567 201.5,94C 194.511,85.7793 195.511,78.6127 204.5,72.5 Z M 297.5,72.5 C 309.939,71.7659 315.106,77.4326 313,89.5C 308.283,96.7956 302.116,98.2956 294.5,94C 287.511,85.7793 288.511,78.6127 297.5,72.5 Z"/></g>
<g><path style="opacity:0.948" fill="#ffffff" d="M 444.5,511.5 C 318.5,511.5 192.5,511.5 66.5,511.5C 55.4339,508.263 48.6006,500.929 46,489.5C 45.3333,462.167 45.3333,434.833 46,407.5C 49.0711,402.701 53.2378,401.535 58.5,404C 59.7014,404.903 60.5348,406.069 61,407.5C 61.3333,433.833 61.6667,460.167 62,486.5C 63.9294,491.892 67.7627,495.059 73.5,496C 91.8303,496.5 110.164,496.667 128.5,496.5C 128.333,466.498 128.5,436.498 129,406.5C 131.833,395.667 138.667,388.833 149.5,386C 163.163,385.5 176.829,385.333 190.5,385.5C 194.189,359.982 207.856,342.149 231.5,332C 261.903,322.14 287.403,329.307 308,353.5C 315.013,363.036 319.179,373.702 320.5,385.5C 334.171,385.333 347.837,385.5 361.5,386C 372.333,388.833 379.167,395.667 382,406.5C 382.5,436.498 382.667,466.498 382.5,496.5C 400.836,496.667 419.17,496.5 437.5,496C 443.237,495.059 447.071,491.892 449,486.5C 449.333,356.5 449.667,226.5 450,96.5C 452.435,91.7762 456.269,90.2762 461.5,92C 463.049,93.214 464.215,94.714 465,96.5C 465.667,227.5 465.667,358.5 465,489.5C 462.399,500.929 455.566,508.263 444.5,511.5 Z M 249.5,343.5 C 278.436,343.12 296.77,356.786 304.5,384.5C 271.833,385.833 239.167,385.833 206.5,384.5C 212.119,361.551 226.452,347.884 249.5,343.5 Z M 152.5,401.5 C 221.167,401.333 289.834,401.5 358.5,402C 362,403.5 364.5,406 366,409.5C 366.5,438.498 366.667,467.498 366.5,496.5C 338.167,496.5 309.833,496.5 281.5,496.5C 287.701,473.211 279.034,459.544 255.5,455.5C 231.966,459.544 223.299,473.211 229.5,496.5C 201.167,496.5 172.833,496.5 144.5,496.5C 144.333,467.498 144.5,438.498 145,409.5C 146.69,405.979 149.19,403.312 152.5,401.5 Z M 252.5,471.5 C 265.957,472.445 270.123,479.112 265,491.5C 258.667,496.833 252.333,496.833 246,491.5C 241.475,482.575 243.642,475.909 252.5,471.5 Z"/></g>
<g><path style="opacity:0.927" fill="#ffffff" d="M 109.5,138.5 C 132.142,137.313 143.642,147.979 144,170.5C 139.419,188.381 127.919,196.214 109.5,194C 95.8785,189.949 88.5452,180.782 87.5,166.5C 88.6567,152.135 95.99,142.801 109.5,138.5 Z M 112.5,154.5 C 125.895,154.709 130.395,161.042 126,173.5C 119.333,180.167 112.667,180.167 106,173.5C 102.18,165.114 104.346,158.78 112.5,154.5 Z"/></g>
<g><path style="opacity:0.926" fill="#ffffff" d="M 388.5,138.5 C 409.079,136.75 420.746,146.083 423.5,166.5C 418.699,191.237 404.365,199.404 380.5,191C 366.899,181.018 363.399,168.185 370,152.5C 374.526,145.505 380.693,140.839 388.5,138.5 Z M 391.5,154.5 C 404.907,154.719 409.407,161.052 405,173.5C 399.833,179 394,179.833 387.5,176C 380.348,167.281 381.682,160.115 391.5,154.5 Z"/></g>
<g><path style="opacity:0.92" fill="#ffffff" d="M 205.5,174.5 C 224.648,174.562 235.314,184.062 237.5,203C 235.667,220.167 226.167,229.667 209,231.5C 191.833,229.667 182.333,220.167 180.5,203C 181.814,187.136 190.147,177.636 205.5,174.5 Z M 206.5,190.5 C 218.702,191.83 222.869,198.163 219,209.5C 212.333,217.5 205.667,217.5 199,209.5C 195.322,200.841 197.822,194.508 206.5,190.5 Z"/></g>
<g><path style="opacity:0.919" fill="#ffffff" d="M 298.5,174.5 C 317.648,174.562 328.314,184.062 330.5,203C 328.667,220.167 319.167,229.667 302,231.5C 278.853,227.672 270.187,214.339 276,191.5C 280.812,182.177 288.312,176.51 298.5,174.5 Z M 299.5,190.5 C 311.69,191.82 315.857,198.154 312,209.5C 305.333,217.5 298.667,217.5 292,209.5C 288.305,200.87 290.805,194.537 299.5,190.5 Z"/></g>
<g><path style="opacity:0.925" fill="#ffffff" d="M 111.5,222.5 C 131.346,221.851 142.346,231.351 144.5,251C 142.683,268.15 133.183,277.65 116,279.5C 93.2366,275.303 84.5699,261.97 90,239.5C 94.6949,230.631 101.862,224.965 111.5,222.5 Z M 113.5,238.5 C 122.073,238.445 127.073,242.612 128.5,251C 125.685,261.572 119.352,264.905 109.5,261C 101.444,252.025 102.777,244.525 113.5,238.5 Z"/></g>
<g><path style="opacity:0.925" fill="#ffffff" d="M 390.5,222.5 C 410.027,222.248 421.027,231.748 423.5,251C 421.329,267.837 411.829,277.337 395,279.5C 371.789,275.622 363.123,262.289 369,239.5C 373.485,230.352 380.652,224.685 390.5,222.5 Z M 392.5,238.5 C 400.653,238.815 405.653,242.982 407.5,251C 404.701,261.563 398.368,264.897 388.5,261C 379.893,251.669 381.226,244.169 392.5,238.5 Z"/></g>
<g><path style="opacity:0.927" fill="#ffffff" d="M 201.5,259.5 C 222.613,257.292 234.613,266.626 237.5,287.5C 234.962,307.538 223.629,316.704 203.5,315C 187.785,310.412 180.285,299.912 181,283.5C 183.394,271.613 190.228,263.613 201.5,259.5 Z M 204.5,275.5 C 214.035,274.036 219.702,278.036 221.5,287.5C 218.521,298.49 211.854,301.657 201.5,297C 194.511,288.779 195.511,281.613 204.5,275.5 Z"/></g>
<g><path style="opacity:0.928" fill="#ffffff" d="M 294.5,259.5 C 315.569,257.241 327.569,266.574 330.5,287.5C 327.81,307.346 316.477,316.512 296.5,315C 282.146,311.474 274.479,302.307 273.5,287.5C 274.455,273.555 281.455,264.222 294.5,259.5 Z M 297.5,275.5 C 309.939,274.766 315.106,280.433 313,292.5C 308.283,299.796 302.116,301.296 294.5,297C 287.511,288.779 288.511,281.613 297.5,275.5 Z"/></g>
</svg>
