<?xml version="1.0" encoding="UTF-8"?>
<!DOCTYPE svg PUBLIC "-//W3C//DTD SVG 1.1//EN" "http://www.w3.org/Graphics/SVG/1.1/DTD/svg11.dtd">
<svg xmlns="http://www.w3.org/2000/svg" version="1.1" width="512px" height="512px" style="shape-rendering:geometricPrecision; text-rendering:geometricPrecision; image-rendering:optimizeQuality; fill-rule:evenodd; clip-rule:evenodd" xmlns:xlink="http://www.w3.org/1999/xlink">
<g><path style="opacity:0.997" fill="#6e83b6" d="M 501.5,380.5 C 491.985,380.827 482.652,380.494 473.5,379.5C 473.5,304.167 473.5,228.833 473.5,153.5C 328.167,153.5 182.833,153.5 37.5,153.5C 37.5,228.833 37.5,304.167 37.5,379.5C 28.3483,380.494 19.015,380.827 9.5,380.5C 9.16669,295.164 9.50002,209.831 10.5,124.5C 92.165,85.7502 173.998,47.4168 256,9.5C 337.548,47.6902 419.048,86.0235 500.5,124.5C 501.5,209.831 501.833,295.164 501.5,380.5 Z M 473.5,379.5 C 450.833,379.5 428.167,379.5 405.5,379.5C 405.5,320.167 405.5,260.833 405.5,201.5C 305.5,201.5 205.5,201.5 105.5,201.5C 105.5,260.833 105.5,320.167 105.5,379.5C 82.8333,379.5 60.1667,379.5 37.5,379.5C 37.5,304.167 37.5,228.833 37.5,153.5C 182.833,153.5 328.167,153.5 473.5,153.5C 473.5,228.833 473.5,304.167 473.5,379.5 Z M 125.5,219.5 C 134.136,227.967 142.969,236.3 152,244.5C 152.832,254.849 152.666,265.183 151.5,275.5C 142.133,270.443 132.799,265.443 123.5,260.5C 122.851,246.459 123.518,232.792 125.5,219.5 Z M 136.5,219.5 C 146.167,219.5 155.833,219.5 165.5,219.5C 170.592,226.097 176.259,232.263 182.5,238C 173.833,238.667 165.167,238.667 156.5,238C 149.637,231.967 142.97,225.801 136.5,219.5 Z M 175.5,219.5 C 183.167,219.5 190.833,219.5 198.5,219.5C 203.57,226.076 209.237,232.243 215.5,238C 207.833,238.667 200.167,238.667 192.5,238C 186.996,231.663 181.329,225.496 175.5,219.5 Z M 208.5,219.5 C 223.167,219.5 237.833,219.5 252.5,219.5C 252.5,225.833 252.5,232.167 252.5,238.5C 243.494,238.666 234.494,238.5 225.5,238C 219.996,231.663 214.329,225.496 208.5,219.5 Z M 258.5,219.5 C 273.167,219.5 287.833,219.5 302.5,219.5C 296.671,225.496 291.004,231.663 285.5,238C 276.506,238.5 267.506,238.666 258.5,238.5C 258.5,232.167 258.5,225.833 258.5,219.5 Z M 312.5,219.5 C 320.167,219.5 327.833,219.5 335.5,219.5C 329.671,225.496 324.004,231.663 318.5,238C 310.833,238.667 303.167,238.667 295.5,238C 301.763,232.243 307.43,226.076 312.5,219.5 Z M 345.5,219.5 C 355.167,219.5 364.833,219.5 374.5,219.5C 368.03,225.801 361.363,231.967 354.5,238C 345.833,238.667 337.167,238.667 328.5,238C 334.741,232.263 340.408,226.097 345.5,219.5 Z M 385.5,219.5 C 387.482,232.792 388.149,246.459 387.5,260.5C 378.221,265.475 368.887,270.475 359.5,275.5C 358.334,265.183 358.168,254.849 359,244.5C 368.031,236.3 376.864,227.967 385.5,219.5 Z M 158.5,245.5 C 168.5,245.5 178.5,245.5 188.5,245.5C 188.5,256.5 188.5,267.5 188.5,278.5C 178.5,278.5 168.5,278.5 158.5,278.5C 158.5,267.5 158.5,256.5 158.5,245.5 Z M 195.5,245.5 C 204.167,245.5 212.833,245.5 221.5,245.5C 221.5,256.5 221.5,267.5 221.5,278.5C 212.833,278.5 204.167,278.5 195.5,278.5C 195.5,267.5 195.5,256.5 195.5,245.5 Z M 228.5,245.5 C 236.5,245.5 244.5,245.5 252.5,245.5C 252.5,256.5 252.5,267.5 252.5,278.5C 244.5,278.5 236.5,278.5 228.5,278.5C 228.5,267.5 228.5,256.5 228.5,245.5 Z M 258.5,245.5 C 266.5,245.5 274.5,245.5 282.5,245.5C 282.5,256.5 282.5,267.5 282.5,278.5C 274.5,278.5 266.5,278.5 258.5,278.5C 258.5,267.5 258.5,256.5 258.5,245.5 Z M 289.5,245.5 C 298.167,245.5 306.833,245.5 315.5,245.5C 315.5,256.5 315.5,267.5 315.5,278.5C 306.833,278.5 298.167,278.5 289.5,278.5C 289.5,267.5 289.5,256.5 289.5,245.5 Z M 322.5,245.5 C 332.5,245.5 342.5,245.5 352.5,245.5C 352.5,256.5 352.5,267.5 352.5,278.5C 342.5,278.5 332.5,278.5 322.5,278.5C 322.5,267.5 322.5,256.5 322.5,245.5 Z M 123.5,268.5 C 133.215,273.441 142.715,278.775 152,284.5C 152.5,295.161 152.667,305.828 152.5,316.5C 142.833,316.5 133.167,316.5 123.5,316.5C 123.5,300.5 123.5,284.5 123.5,268.5 Z M 387.5,268.5 C 387.5,284.5 387.5,300.5 387.5,316.5C 377.833,316.5 368.167,316.5 358.5,316.5C 358.333,305.828 358.5,295.161 359,284.5C 368.285,278.775 377.785,273.441 387.5,268.5 Z M 158.5,285.5 C 168.5,285.5 178.5,285.5 188.5,285.5C 188.5,295.833 188.5,306.167 188.5,316.5C 178.5,316.5 168.5,316.5 158.5,316.5C 158.5,306.167 158.5,295.833 158.5,285.5 Z M 195.5,285.5 C 204.167,285.5 212.833,285.5 221.5,285.5C 221.5,295.833 221.5,306.167 221.5,316.5C 212.833,316.5 204.167,316.5 195.5,316.5C 195.5,306.167 195.5,295.833 195.5,285.5 Z M 228.5,285.5 C 236.5,285.5 244.5,285.5 252.5,285.5C 252.5,295.833 252.5,306.167 252.5,316.5C 244.5,316.5 236.5,316.5 228.5,316.5C 228.5,306.167 228.5,295.833 228.5,285.5 Z M 258.5,285.5 C 266.5,285.5 274.5,285.5 282.5,285.5C 282.5,295.833 282.5,306.167 282.5,316.5C 274.5,316.5 266.5,316.5 258.5,316.5C 258.5,306.167 258.5,295.833 258.5,285.5 Z M 289.5,285.5 C 298.167,285.5 306.833,285.5 315.5,285.5C 315.5,295.833 315.5,306.167 315.5,316.5C 306.833,316.5 298.167,316.5 289.5,316.5C 289.5,306.167 289.5,295.833 289.5,285.5 Z M 322.5,285.5 C 332.5,285.5 342.5,285.5 352.5,285.5C 352.5,295.833 352.5,306.167 352.5,316.5C 342.5,316.5 332.5,316.5 322.5,316.5C 322.5,306.167 322.5,295.833 322.5,285.5 Z M 123.5,323.5 C 133.167,323.5 142.833,323.5 152.5,323.5C 152.667,334.505 152.5,345.505 152,356.5C 142.72,362.556 133.22,368.222 123.5,373.5C 123.5,356.833 123.5,340.167 123.5,323.5 Z M 158.5,323.5 C 168.5,323.5 178.5,323.5 188.5,323.5C 188.5,334.167 188.5,344.833 188.5,355.5C 178.5,355.5 168.5,355.5 158.5,355.5C 158.5,344.833 158.5,334.167 158.5,323.5 Z M 195.5,323.5 C 204.167,323.5 212.833,323.5 221.5,323.5C 221.5,334.167 221.5,344.833 221.5,355.5C 212.833,355.5 204.167,355.5 195.5,355.5C 195.5,344.833 195.5,334.167 195.5,323.5 Z M 228.5,323.5 C 236.5,323.5 244.5,323.5 252.5,323.5C 252.5,334.167 252.5,344.833 252.5,355.5C 244.5,355.5 236.5,355.5 228.5,355.5C 228.5,344.833 228.5,334.167 228.5,323.5 Z M 258.5,323.5 C 266.5,323.5 274.5,323.5 282.5,323.5C 282.5,334.167 282.5,344.833 282.5,355.5C 274.5,355.5 266.5,355.5 258.5,355.5C 258.5,344.833 258.5,334.167 258.5,323.5 Z M 289.5,323.5 C 298.167,323.5 306.833,323.5 315.5,323.5C 315.5,334.167 315.5,344.833 315.5,355.5C 306.833,355.5 298.167,355.5 289.5,355.5C 289.5,344.833 289.5,334.167 289.5,323.5 Z M 322.5,323.5 C 332.5,323.5 342.5,323.5 352.5,323.5C 352.5,334.167 352.5,344.833 352.5,355.5C 342.5,355.5 332.5,355.5 322.5,355.5C 322.5,344.833 322.5,334.167 322.5,323.5 Z M 387.5,323.5 C 387.5,340.167 387.5,356.833 387.5,373.5C 377.78,368.222 368.28,362.556 359,356.5C 358.5,345.505 358.333,334.505 358.5,323.5C 368.167,323.5 377.833,323.5 387.5,323.5 Z"/></g>
<g><path style="opacity:1" fill="#466089" d="M 145.5,100.5 C 218.833,100.5 292.167,100.5 365.5,100.5C 365.5,113.833 365.5,127.167 365.5,140.5C 292.167,140.5 218.833,140.5 145.5,140.5C 145.5,127.167 145.5,113.833 145.5,100.5 Z"/></g>
<g><path style="opacity:1" fill="#6e83b7" d="M 405.5,379.5 C 405.5,380.833 405.5,382.167 405.5,383.5C 399.5,383.5 393.5,383.5 387.5,383.5C 387.5,380.167 387.5,376.833 387.5,373.5C 387.5,356.833 387.5,340.167 387.5,323.5C 387.5,321.167 387.5,318.833 387.5,316.5C 387.5,300.5 387.5,284.5 387.5,268.5C 387.5,265.833 387.5,263.167 387.5,260.5C 388.149,246.459 387.482,232.792 385.5,219.5C 381.833,219.5 378.167,219.5 374.5,219.5C 364.833,219.5 355.167,219.5 345.5,219.5C 342.167,219.5 338.833,219.5 335.5,219.5C 327.833,219.5 320.167,219.5 312.5,219.5C 309.167,219.5 305.833,219.5 302.5,219.5C 287.833,219.5 273.167,219.5 258.5,219.5C 256.5,219.5 254.5,219.5 252.5,219.5C 237.833,219.5 223.167,219.5 208.5,219.5C 205.167,219.5 201.833,219.5 198.5,219.5C 190.833,219.5 183.167,219.5 175.5,219.5C 172.167,219.5 168.833,219.5 165.5,219.5C 155.833,219.5 146.167,219.5 136.5,219.5C 132.833,219.5 129.167,219.5 125.5,219.5C 123.518,232.792 122.851,246.459 123.5,260.5C 123.5,263.167 123.5,265.833 123.5,268.5C 123.5,284.5 123.5,300.5 123.5,316.5C 123.5,318.833 123.5,321.167 123.5,323.5C 123.5,340.167 123.5,356.833 123.5,373.5C 123.5,376.833 123.5,380.167 123.5,383.5C 117.5,383.5 111.5,383.5 105.5,383.5C 105.5,382.167 105.5,380.833 105.5,379.5C 105.5,320.167 105.5,260.833 105.5,201.5C 205.5,201.5 305.5,201.5 405.5,201.5C 405.5,260.833 405.5,320.167 405.5,379.5 Z M 125.5,219.5 C 134.136,227.967 142.969,236.3 152,244.5C 152.832,254.849 152.666,265.183 151.5,275.5C 142.133,270.443 132.799,265.443 123.5,260.5C 122.851,246.459 123.518,232.792 125.5,219.5 Z M 136.5,219.5 C 146.167,219.5 155.833,219.5 165.5,219.5C 170.592,226.097 176.259,232.263 182.5,238C 173.833,238.667 165.167,238.667 156.5,238C 149.637,231.967 142.97,225.801 136.5,219.5 Z M 175.5,219.5 C 183.167,219.5 190.833,219.5 198.5,219.5C 203.57,226.076 209.237,232.243 215.5,238C 207.833,238.667 200.167,238.667 192.5,238C 186.996,231.663 181.329,225.496 175.5,219.5 Z M 208.5,219.5 C 223.167,219.5 237.833,219.5 252.5,219.5C 252.5,225.833 252.5,232.167 252.5,238.5C 243.494,238.666 234.494,238.5 225.5,238C 219.996,231.663 214.329,225.496 208.5,219.5 Z M 258.5,219.5 C 273.167,219.5 287.833,219.5 302.5,219.5C 296.671,225.496 291.004,231.663 285.5,238C 276.506,238.5 267.506,238.666 258.5,238.5C 258.5,232.167 258.5,225.833 258.5,219.5 Z M 312.5,219.5 C 320.167,219.5 327.833,219.5 335.5,219.5C 329.671,225.496 324.004,231.663 318.5,238C 310.833,238.667 303.167,238.667 295.5,238C 301.763,232.243 307.43,226.076 312.5,219.5 Z M 345.5,219.5 C 355.167,219.5 364.833,219.5 374.5,219.5C 368.03,225.801 361.363,231.967 354.5,238C 345.833,238.667 337.167,238.667 328.5,238C 334.741,232.263 340.408,226.097 345.5,219.5 Z M 385.5,219.5 C 387.482,232.792 388.149,246.459 387.5,260.5C 378.221,265.475 368.887,270.475 359.5,275.5C 358.334,265.183 358.168,254.849 359,244.5C 368.031,236.3 376.864,227.967 385.5,219.5 Z M 158.5,245.5 C 158.5,256.5 158.5,267.5 158.5,278.5C 168.5,278.5 178.5,278.5 188.5,278.5C 188.5,267.5 188.5,256.5 188.5,245.5C 178.5,245.5 168.5,245.5 158.5,245.5 Z M 195.5,245.5 C 195.5,256.5 195.5,267.5 195.5,278.5C 204.167,278.5 212.833,278.5 221.5,278.5C 221.5,267.5 221.5,256.5 221.5,245.5C 212.833,245.5 204.167,245.5 195.5,245.5 Z M 228.5,245.5 C 228.5,256.5 228.5,267.5 228.5,278.5C 236.5,278.5 244.5,278.5 252.5,278.5C 252.5,267.5 252.5,256.5 252.5,245.5C 244.5,245.5 236.5,245.5 228.5,245.5 Z M 258.5,245.5 C 258.5,256.5 258.5,267.5 258.5,278.5C 266.5,278.5 274.5,278.5 282.5,278.5C 282.5,267.5 282.5,256.5 282.5,245.5C 274.5,245.5 266.5,245.5 258.5,245.5 Z M 289.5,245.5 C 289.5,256.5 289.5,267.5 289.5,278.5C 298.167,278.5 306.833,278.5 315.5,278.5C 315.5,267.5 315.5,256.5 315.5,245.5C 306.833,245.5 298.167,245.5 289.5,245.5 Z M 322.5,245.5 C 322.5,256.5 322.5,267.5 322.5,278.5C 332.5,278.5 342.5,278.5 352.5,278.5C 352.5,267.5 352.5,256.5 352.5,245.5C 342.5,245.5 332.5,245.5 322.5,245.5 Z M 123.5,268.5 C 133.215,273.441 142.715,278.775 152,284.5C 152.5,295.161 152.667,305.828 152.5,316.5C 142.833,316.5 133.167,316.5 123.5,316.5C 123.5,300.5 123.5,284.5 123.5,268.5 Z M 387.5,268.5 C 387.5,284.5 387.5,300.5 387.5,316.5C 377.833,316.5 368.167,316.5 358.5,316.5C 358.333,305.828 358.5,295.161 359,284.5C 368.285,278.775 377.785,273.441 387.5,268.5 Z M 158.5,285.5 C 158.5,295.833 158.5,306.167 158.5,316.5C 168.5,316.5 178.5,316.5 188.5,316.5C 188.5,306.167 188.5,295.833 188.5,285.5C 178.5,285.5 168.5,285.5 158.5,285.5 Z M 195.5,285.5 C 195.5,295.833 195.5,306.167 195.5,316.5C 204.167,316.5 212.833,316.5 221.5,316.5C 221.5,306.167 221.5,295.833 221.5,285.5C 212.833,285.5 204.167,285.5 195.5,285.5 Z M 228.5,285.5 C 228.5,295.833 228.5,306.167 228.5,316.5C 236.5,316.5 244.5,316.5 252.5,316.5C 252.5,306.167 252.5,295.833 252.5,285.5C 244.5,285.5 236.5,285.5 228.5,285.5 Z M 258.5,285.5 C 258.5,295.833 258.5,306.167 258.5,316.5C 266.5,316.5 274.5,316.5 282.5,316.5C 282.5,306.167 282.5,295.833 282.5,285.5C 274.5,285.5 266.5,285.5 258.5,285.5 Z M 289.5,285.5 C 289.5,295.833 289.5,306.167 289.5,316.5C 298.167,316.5 306.833,316.5 315.5,316.5C 315.5,306.167 315.5,295.833 315.5,285.5C 306.833,285.5 298.167,285.5 289.5,285.5 Z M 322.5,285.5 C 322.5,295.833 322.5,306.167 322.5,316.5C 332.5,316.5 342.5,316.5 352.5,316.5C 352.5,306.167 352.5,295.833 352.5,285.5C 342.5,285.5 332.5,285.5 322.5,285.5 Z M 123.5,323.5 C 133.167,323.5 142.833,323.5 152.5,323.5C 152.667,334.505 152.5,345.505 152,356.5C 142.72,362.556 133.22,368.222 123.5,373.5C 123.5,356.833 123.5,340.167 123.5,323.5 Z M 158.5,323.5 C 158.5,334.167 158.5,344.833 158.5,355.5C 168.5,355.5 178.5,355.5 188.5,355.5C 188.5,344.833 188.5,334.167 188.5,323.5C 178.5,323.5 168.5,323.5 158.5,323.5 Z M 195.5,323.5 C 195.5,334.167 195.5,344.833 195.5,355.5C 204.167,355.5 212.833,355.5 221.5,355.5C 221.5,344.833 221.5,334.167 221.5,323.5C 212.833,323.5 204.167,323.5 195.5,323.5 Z M 228.5,323.5 C 228.5,334.167 228.5,344.833 228.5,355.5C 236.5,355.5 244.5,355.5 252.5,355.5C 252.5,344.833 252.5,334.167 252.5,323.5C 244.5,323.5 236.5,323.5 228.5,323.5 Z M 258.5,323.5 C 258.5,334.167 258.5,344.833 258.5,355.5C 266.5,355.5 274.5,355.5 282.5,355.5C 282.5,344.833 282.5,334.167 282.5,323.5C 274.5,323.5 266.5,323.5 258.5,323.5 Z M 289.5,323.5 C 289.5,334.167 289.5,344.833 289.5,355.5C 298.167,355.5 306.833,355.5 315.5,355.5C 315.5,344.833 315.5,334.167 315.5,323.5C 306.833,323.5 298.167,323.5 289.5,323.5 Z M 322.5,323.5 C 322.5,334.167 322.5,344.833 322.5,355.5C 332.5,355.5 342.5,355.5 352.5,355.5C 352.5,344.833 352.5,334.167 352.5,323.5C 342.5,323.5 332.5,323.5 322.5,323.5 Z M 387.5,323.5 C 387.5,340.167 387.5,356.833 387.5,373.5C 377.78,368.222 368.28,362.556 359,356.5C 358.5,345.505 358.333,334.505 358.5,323.5C 368.167,323.5 377.833,323.5 387.5,323.5 Z"/></g>
<g><path style="opacity:0.957" fill="#edeff1" d="M 125.5,219.5 C 129.167,219.5 132.833,219.5 136.5,219.5C 142.97,225.801 149.637,231.967 156.5,238C 165.167,238.667 173.833,238.667 182.5,238C 176.259,232.263 170.592,226.097 165.5,219.5C 168.833,219.5 172.167,219.5 175.5,219.5C 181.329,225.496 186.996,231.663 192.5,238C 200.167,238.667 207.833,238.667 215.5,238C 209.237,232.243 203.57,226.076 198.5,219.5C 201.833,219.5 205.167,219.5 208.5,219.5C 214.329,225.496 219.996,231.663 225.5,238C 234.494,238.5 243.494,238.666 252.5,238.5C 252.5,232.167 252.5,225.833 252.5,219.5C 254.5,219.5 256.5,219.5 258.5,219.5C 258.5,225.833 258.5,232.167 258.5,238.5C 267.506,238.666 276.506,238.5 285.5,238C 291.004,231.663 296.671,225.496 302.5,219.5C 305.833,219.5 309.167,219.5 312.5,219.5C 307.43,226.076 301.763,232.243 295.5,238C 303.167,238.667 310.833,238.667 318.5,238C 324.004,231.663 329.671,225.496 335.5,219.5C 338.833,219.5 342.167,219.5 345.5,219.5C 340.408,226.097 334.741,232.263 328.5,238C 337.167,238.667 345.833,238.667 354.5,238C 361.363,231.967 368.03,225.801 374.5,219.5C 378.167,219.5 381.833,219.5 385.5,219.5C 376.864,227.967 368.031,236.3 359,244.5C 358.168,254.849 358.334,265.183 359.5,275.5C 368.887,270.475 378.221,265.475 387.5,260.5C 387.5,263.167 387.5,265.833 387.5,268.5C 377.785,273.441 368.285,278.775 359,284.5C 358.5,295.161 358.333,305.828 358.5,316.5C 368.167,316.5 377.833,316.5 387.5,316.5C 387.5,318.833 387.5,321.167 387.5,323.5C 377.833,323.5 368.167,323.5 358.5,323.5C 358.333,334.505 358.5,345.505 359,356.5C 368.28,362.556 377.78,368.222 387.5,373.5C 387.5,376.833 387.5,380.167 387.5,383.5C 299.5,383.5 211.5,383.5 123.5,383.5C 123.5,380.167 123.5,376.833 123.5,373.5C 133.22,368.222 142.72,362.556 152,356.5C 152.5,345.505 152.667,334.505 152.5,323.5C 142.833,323.5 133.167,323.5 123.5,323.5C 123.5,321.167 123.5,318.833 123.5,316.5C 133.167,316.5 142.833,316.5 152.5,316.5C 152.667,305.828 152.5,295.161 152,284.5C 142.715,278.775 133.215,273.441 123.5,268.5C 123.5,265.833 123.5,263.167 123.5,260.5C 132.799,265.443 142.133,270.443 151.5,275.5C 152.666,265.183 152.832,254.849 152,244.5C 142.969,236.3 134.136,227.967 125.5,219.5 Z M 136.5,219.5 C 146.167,219.5 155.833,219.5 165.5,219.5C 170.592,226.097 176.259,232.263 182.5,238C 173.833,238.667 165.167,238.667 156.5,238C 149.637,231.967 142.97,225.801 136.5,219.5 Z M 175.5,219.5 C 183.167,219.5 190.833,219.5 198.5,219.5C 203.57,226.076 209.237,232.243 215.5,238C 207.833,238.667 200.167,238.667 192.5,238C 186.996,231.663 181.329,225.496 175.5,219.5 Z M 208.5,219.5 C 223.167,219.5 237.833,219.5 252.5,219.5C 252.5,225.833 252.5,232.167 252.5,238.5C 243.494,238.666 234.494,238.5 225.5,238C 219.996,231.663 214.329,225.496 208.5,219.5 Z M 258.5,219.5 C 273.167,219.5 287.833,219.5 302.5,219.5C 296.671,225.496 291.004,231.663 285.5,238C 276.506,238.5 267.506,238.666 258.5,238.5C 258.5,232.167 258.5,225.833 258.5,219.5 Z M 312.5,219.5 C 320.167,219.5 327.833,219.5 335.5,219.5C 329.671,225.496 324.004,231.663 318.5,238C 310.833,238.667 303.167,238.667 295.5,238C 301.763,232.243 307.43,226.076 312.5,219.5 Z M 345.5,219.5 C 355.167,219.5 364.833,219.5 374.5,219.5C 368.03,225.801 361.363,231.967 354.5,238C 345.833,238.667 337.167,238.667 328.5,238C 334.741,232.263 340.408,226.097 345.5,219.5 Z M 158.5,245.5 C 158.5,256.5 158.5,267.5 158.5,278.5C 168.5,278.5 178.5,278.5 188.5,278.5C 188.5,267.5 188.5,256.5 188.5,245.5C 178.5,245.5 168.5,245.5 158.5,245.5 Z M 195.5,245.5 C 195.5,256.5 195.5,267.5 195.5,278.5C 204.167,278.5 212.833,278.5 221.5,278.5C 221.5,267.5 221.5,256.5 221.5,245.5C 212.833,245.5 204.167,245.5 195.5,245.5 Z M 228.5,245.5 C 228.5,256.5 228.5,267.5 228.5,278.5C 236.5,278.5 244.5,278.5 252.5,278.5C 252.5,267.5 252.5,256.5 252.5,245.5C 244.5,245.5 236.5,245.5 228.5,245.5 Z M 258.5,245.5 C 258.5,256.5 258.5,267.5 258.5,278.5C 266.5,278.5 274.5,278.5 282.5,278.5C 282.5,267.5 282.5,256.5 282.5,245.5C 274.5,245.5 266.5,245.5 258.5,245.5 Z M 289.5,245.5 C 289.5,256.5 289.5,267.5 289.5,278.5C 298.167,278.5 306.833,278.5 315.5,278.5C 315.5,267.5 315.5,256.5 315.5,245.5C 306.833,245.5 298.167,245.5 289.5,245.5 Z M 322.5,245.5 C 322.5,256.5 322.5,267.5 322.5,278.5C 332.5,278.5 342.5,278.5 352.5,278.5C 352.5,267.5 352.5,256.5 352.5,245.5C 342.5,245.5 332.5,245.5 322.5,245.5 Z M 158.5,285.5 C 158.5,295.833 158.5,306.167 158.5,316.5C 168.5,316.5 178.5,316.5 188.5,316.5C 188.5,306.167 188.5,295.833 188.5,285.5C 178.5,285.5 168.5,285.5 158.5,285.5 Z M 195.5,285.5 C 195.5,295.833 195.5,306.167 195.5,316.5C 204.167,316.5 212.833,316.5 221.5,316.5C 221.5,306.167 221.5,295.833 221.5,285.5C 212.833,285.5 204.167,285.5 195.5,285.5 Z M 228.5,285.5 C 228.5,295.833 228.5,306.167 228.5,316.5C 236.5,316.5 244.5,316.5 252.5,316.5C 252.5,306.167 252.5,295.833 252.5,285.5C 244.5,285.5 236.5,285.5 228.5,285.5 Z M 258.5,285.5 C 258.5,295.833 258.5,306.167 258.5,316.5C 266.5,316.5 274.5,316.5 282.5,316.5C 282.5,306.167 282.5,295.833 282.5,285.5C 274.5,285.5 266.5,285.5 258.5,285.5 Z M 289.5,285.5 C 289.5,295.833 289.5,306.167 289.5,316.5C 298.167,316.5 306.833,316.5 315.5,316.5C 315.5,306.167 315.5,295.833 315.5,285.5C 306.833,285.5 298.167,285.5 289.5,285.5 Z M 322.5,285.5 C 322.5,295.833 322.5,306.167 322.5,316.5C 332.5,316.5 342.5,316.5 352.5,316.5C 352.5,306.167 352.5,295.833 352.5,285.5C 342.5,285.5 332.5,285.5 322.5,285.5 Z M 158.5,323.5 C 158.5,334.167 158.5,344.833 158.5,355.5C 168.5,355.5 178.5,355.5 188.5,355.5C 188.5,344.833 188.5,334.167 188.5,323.5C 178.5,323.5 168.5,323.5 158.5,323.5 Z M 195.5,323.5 C 195.5,334.167 195.5,344.833 195.5,355.5C 204.167,355.5 212.833,355.5 221.5,355.5C 221.5,344.833 221.5,334.167 221.5,323.5C 212.833,323.5 204.167,323.5 195.5,323.5 Z M 228.5,323.5 C 228.5,334.167 228.5,344.833 228.5,355.5C 236.5,355.5 244.5,355.5 252.5,355.5C 252.5,344.833 252.5,334.167 252.5,323.5C 244.5,323.5 236.5,323.5 228.5,323.5 Z M 258.5,323.5 C 258.5,334.167 258.5,344.833 258.5,355.5C 266.5,355.5 274.5,355.5 282.5,355.5C 282.5,344.833 282.5,334.167 282.5,323.5C 274.5,323.5 266.5,323.5 258.5,323.5 Z M 289.5,323.5 C 289.5,334.167 289.5,344.833 289.5,355.5C 298.167,355.5 306.833,355.5 315.5,355.5C 315.5,344.833 315.5,334.167 315.5,323.5C 306.833,323.5 298.167,323.5 289.5,323.5 Z M 322.5,323.5 C 322.5,334.167 322.5,344.833 322.5,355.5C 332.5,355.5 342.5,355.5 352.5,355.5C 352.5,344.833 352.5,334.167 352.5,323.5C 342.5,323.5 332.5,323.5 322.5,323.5 Z"/></g>
<g><path style="opacity:1" fill="#99ca6b" d="M 155.5,361.5 C 222.167,361.333 288.834,361.5 355.5,362C 363.5,367 371.5,372 379.5,377C 296.833,377.667 214.167,377.667 131.5,377C 139.735,372.058 147.735,366.892 155.5,361.5 Z"/></g>
<g><path style="opacity:0.998" fill="#97c969" d="M 37.5,379.5 C 60.1667,379.5 82.8333,379.5 105.5,379.5C 105.5,380.833 105.5,382.167 105.5,383.5C 111.5,383.5 117.5,383.5 123.5,383.5C 211.5,383.5 299.5,383.5 387.5,383.5C 393.5,383.5 399.5,383.5 405.5,383.5C 405.5,382.167 405.5,380.833 405.5,379.5C 428.167,379.5 450.833,379.5 473.5,379.5C 482.652,380.494 491.985,380.827 501.5,380.5C 501.5,420.833 501.5,461.167 501.5,501.5C 337.5,501.5 173.5,501.5 9.5,501.5C 9.5,461.167 9.5,420.833 9.5,380.5C 19.015,380.827 28.3483,380.494 37.5,379.5 Z"/></g>
<g><path style="opacity:1" fill="#7085b7" d="M 247.5,406.5 C 271.906,404.609 287.739,415.276 295,438.5C 297.373,462.931 286.873,478.764 263.5,486C 239.094,488.383 223.261,477.883 216,454.5C 213.741,429.996 224.241,413.996 247.5,406.5 Z"/></g>
<g><path style="opacity:1" fill="#eaedef" d="M 240.5,411.5 C 244.65,413.165 248.483,415.498 252,418.5C 252.667,423.5 252.667,428.5 252,433.5C 248.825,436.085 245.491,438.419 242,440.5C 237.902,439.024 233.902,437.358 230,435.5C 228.732,431.864 227.566,428.197 226.5,424.5C 229.904,418.761 234.571,414.428 240.5,411.5 Z"/></g>
<g><path style="opacity:1" fill="#ebedf0" d="M 267.5,411.5 C 275.19,413.19 280.856,417.523 284.5,424.5C 283.434,428.197 282.268,431.864 281,435.5C 276.936,436.967 272.936,438.634 269,440.5C 265.509,438.419 262.175,436.085 259,433.5C 258.333,428.5 258.333,423.5 259,418.5C 262.023,416.302 264.856,413.969 267.5,411.5 Z"/></g>
<g><path style="opacity:1" fill="#eaecef" d="M 227.5,441.5 C 232.032,443.066 236.532,444.733 241,446.5C 241.866,450.264 243.033,453.931 244.5,457.5C 242.539,461.258 240.205,464.758 237.5,468C 233.129,468.828 228.795,468.661 224.5,467.5C 220.731,461.696 218.897,455.363 219,448.5C 221.996,446.267 224.829,443.934 227.5,441.5 Z"/></g>
<g><path style="opacity:1" fill="#eaecef" d="M 281.5,441.5 C 285.372,443.193 288.872,445.526 292,448.5C 292.115,455.329 290.282,461.663 286.5,467.5C 282.205,468.661 277.871,468.828 273.5,468C 270.795,464.758 268.461,461.258 266.5,457.5C 267.967,453.931 269.134,450.264 270,446.5C 273.876,444.716 277.709,443.049 281.5,441.5 Z"/></g>
<g><path style="opacity:1" fill="#eaecef" d="M 248.5,461.5 C 258.583,458.927 264.917,462.427 267.5,472C 266.363,475.746 265.029,479.413 263.5,483C 257.916,483.806 252.416,483.639 247,482.5C 245.829,478.987 244.662,475.487 243.5,472C 244.957,468.384 246.624,464.884 248.5,461.5 Z"/></g>
</svg>
