<?xml version="1.0" encoding="UTF-8"?>
<!DOCTYPE svg PUBLIC "-//W3C//DTD SVG 1.1//EN" "http://www.w3.org/Graphics/SVG/1.1/DTD/svg11.dtd">
<svg xmlns="http://www.w3.org/2000/svg" version="1.1" width="512px" height="512px" style="shape-rendering:geometricPrecision; text-rendering:geometricPrecision; image-rendering:optimizeQuality; fill-rule:evenodd; clip-rule:evenodd" xmlns:xlink="http://www.w3.org/1999/xlink">
<g><path style="opacity:0.979" fill="#FFFFFF" d="M 249.5,-0.5 C 253.5,-0.5 257.5,-0.5 261.5,-0.5C 281.16,17.1551 301.16,34.4884 321.5,51.5C 340.334,40.2508 359.001,28.7508 377.5,17C 386.819,14.2517 393.652,17.0851 398,25.5C 398.667,72.1667 398.667,118.833 398,165.5C 396.589,168.997 394.256,171.664 391,173.5C 390.667,198.5 390.333,223.5 390,248.5C 388.155,263.202 383.988,277.202 377.5,290.5C 385.554,295.382 392.887,301.216 399.5,308C 445.499,321.333 475.666,350.833 490,396.5C 491.717,402.752 493.05,409.086 494,415.5C 494.667,444.5 494.667,473.5 494,502.5C 492.312,506.685 489.479,509.685 485.5,511.5C 332.167,511.5 178.833,511.5 25.5,511.5C 21.5212,509.685 18.6878,506.685 17,502.5C 16.3333,473.5 16.3333,444.5 17,415.5C 23.7294,373.5 45.2294,341.666 81.5,320C 91.0492,314.893 101.049,310.893 111.5,308C 118.113,301.216 125.446,295.382 133.5,290.5C 127.012,277.202 122.845,263.202 121,248.5C 120.667,223.5 120.333,198.5 120,173.5C 116.744,171.664 114.411,168.997 113,165.5C 112.333,118.833 112.333,72.1667 113,25.5C 117.348,17.0851 124.181,14.2517 133.5,17C 152.299,28.3018 170.966,39.8018 189.5,51.5C 209.84,34.4884 229.84,17.1551 249.5,-0.5 Z M 254.5,35.5 C 274.275,52.1006 293.942,68.9339 313.5,86C 317.5,86.6667 321.5,86.6667 325.5,86C 339.751,77.2919 353.917,68.4585 368,59.5C 368.5,87.8314 368.667,116.165 368.5,144.5C 293.167,144.5 217.833,144.5 142.5,144.5C 142.333,116.165 142.5,87.8314 143,59.5C 157.083,68.4585 171.249,77.2919 185.5,86C 191.668,87.3544 197.334,86.3544 202.5,83C 220.096,67.3833 237.429,51.5499 254.5,35.5 Z M 150.5,174.5 C 160.839,174.334 171.172,174.5 181.5,175C 176,189.833 165.833,200 151,205.5C 150.5,195.172 150.334,184.839 150.5,174.5 Z M 213.5,174.5 C 241.5,174.5 269.5,174.5 297.5,174.5C 305.268,207.602 325.602,228.602 358.5,237.5C 354.818,283.644 331.151,314.81 287.5,331C 236.476,343.731 195.976,328.565 166,285.5C 156.805,270.709 152.305,254.709 152.5,237.5C 185.398,228.602 205.732,207.602 213.5,174.5 Z M 329.5,175.5 C 339.653,174.506 349.986,174.172 360.5,174.5C 360.666,184.839 360.5,195.172 360,205.5C 345.315,199.981 335.149,189.981 329.5,175.5 Z M 149.5,317.5 C 194.149,365.494 247.482,378.327 309.5,356C 329.407,347.044 346.407,334.21 360.5,317.5C 391.147,334.902 391.147,352.402 360.5,370C 338.429,381.018 315.096,387.685 290.5,390C 255.857,393.812 221.524,391.812 187.5,384C 171.464,379.992 156.464,373.659 142.5,365C 136.235,360.737 131.402,355.237 128,348.5C 126.532,342.14 127.865,336.474 132,331.5C 137.444,326.209 143.277,321.543 149.5,317.5 Z M 414.5,347.5 C 441.467,363.659 457.634,387.326 463,418.5C 464.309,439.478 464.809,460.478 464.5,481.5C 399.833,481.5 335.167,481.5 270.5,481.5C 270.5,461.833 270.5,442.167 270.5,422.5C 306.139,421.607 340.139,413.773 372.5,399C 389.226,390.941 402.059,378.774 411,362.5C 412.958,357.671 414.124,352.671 414.5,347.5 Z M 94.5,348.5 C 98.4589,363.35 106.459,375.85 118.5,386C 146.087,405.201 176.754,416.534 210.5,420C 220.472,421.225 230.472,422.058 240.5,422.5C 240.5,442.167 240.5,461.833 240.5,481.5C 175.833,481.5 111.167,481.5 46.5,481.5C 46.1909,460.478 46.6909,439.478 48,418.5C 53.2856,388.231 68.7856,364.897 94.5,348.5 Z"/></g>
</svg>
